<?xml version="1.0" standalone="no"?>
<!DOCTYPE svg PUBLIC "-//W3C//DTD SVG 1.1//EN" "http://www.w3.org/Graphics/SVG/1.1/DTD/svg11.dtd" >
<svg xmlns="http://www.w3.org/2000/svg">
<metadata></metadata>
<defs>
<font id="webfontregular" horiz-adv-x="1064" >
<font-face units-per-em="2048" ascent="1485" descent="-563" />
<missing-glyph horiz-adv-x="491" />
<glyph unicode="&#xfb03;" horiz-adv-x="1732" d="M33 735q-2 20 6 29l88 45q45 25 45 53q0 162 57 287q123 266 422 266q174 0 248 -72q121 121 340 121q152 0 246 -60t94 -151q0 -61 -43 -97q-44 -36 -106 -36t-89 43q-8 12 -26 51t-29 56q-53 92 -127 92q-39 0 -69 -29t-55 -117q-24 -88 -23 -231v-115q0 -39 7 -45 t46 -6h158q266 0 338 17q33 0 34 -31q-10 -109 -10 -236v-331q0 -111 12 -139t64 -33l33 -5q12 -7 12 -33t-14 -34q-94 6 -230 6t-235 -6q-14 8 -15 34q0 26 13 33l32 5q41 4 52 32q10 29 10 140v292q0 121 -16 150t-91 29h-147q-37 -1 -45 -9t-8 -49v-413q0 -111 12 -138 t63 -34l27 -5q12 -7 12 -33t-14 -34q-88 6 -224 6t-235 -6q-14 8 -14 34t12 33l33 5q41 4 51 32t10 140v413q0 41 -7 49t-44 9h-202q-34 1 -44 -9t-10 -49v-413q0 -111 12 -138t64 -34l27 -5q12 -7 12 -33t-14 -34q-87 6 -231 6t-242 -6q-14 8 -15 34q0 26 12 33l33 5 q51 6 64 33q12 28 12 139v413q0 41 -7 49t-44 9h-76q-10 6 -12 26zM438 877q0 -41 7 -50q8 -8 47 -8h208q29 0 37 8t8 35q0 162 41 303q-14 59 -52 107t-108 49q-70 0 -129 -94q-58 -94 -59 -332v-18z" />
<glyph unicode="&#xfb04;" horiz-adv-x="1732" d="M33 735q-2 20 6 29l88 45q45 25 45 53q0 162 57 287q123 266 420 266q166 0 240 -72q39 43 122 82t203 39t207 -61q66 23 135 61q23 0 35 -14q-6 -127 -6 -299v-913q0 -106 12 -134t64 -34l33 -4q12 -8 12 -36t-14 -36q-98 6 -232 6t-233 -6q-14 8 -15 34q0 26 13 33 l32 5q41 4 52 32q10 29 10 140v419q0 37 -8 44t-47 8h-199q-39 -1 -46 -9t-7 -49v-413q0 -111 12 -138t63 -34l27 -5q12 -7 12 -33t-14 -34q-88 6 -232 6t-241 -6q-14 8 -14 36t12 36l33 4q51 6 63 34t12 134v413q0 41 -7 49t-44 9h-202q-34 1 -44 -9t-10 -49v-413 q0 -111 12 -138t64 -34l27 -5q12 -7 12 -33t-14 -34q-87 6 -231 6t-242 -6q-14 8 -15 34q0 26 12 33l33 5q51 6 64 33q12 28 12 139v413q0 41 -7 49t-44 9h-76q-10 6 -12 26zM438 877q0 -41 7 -50q8 -8 47 -8h208q29 0 37 8t8 35q0 162 41 303q-14 59 -52 107t-108 49 q-70 0 -129 -94q-58 -94 -59 -332v-18zM1012 877q0 -41 7 -49t46 -9h199q39 0 47 7t8 44v330q0 58 -37 112t-102 54t-112 -87q-56 -99 -56 -355v-47z" />
<glyph horiz-adv-x="0" />
<glyph unicode="&#xd;" horiz-adv-x="681" />
<glyph unicode=" "  horiz-adv-x="491" />
<glyph unicode="&#x09;" horiz-adv-x="491" />
<glyph unicode="&#xa0;" horiz-adv-x="491" />
<glyph unicode="!" horiz-adv-x="520" d="M94 137q0 72 48 121t119 49t118 -51t47 -121t-46 -117t-116 -47t-120 47t-50 119zM96 1235q0 49 40 69t124 19q84 0 124 -19t40 -69q0 -10 -33 -240l-86 -575q-18 -12 -45 -12t-45 12l-86 575q-33 229 -33 240z" />
<glyph unicode="&#x22;" horiz-adv-x="966" d="M148 1375q0 35 28 47q29 12 103 12q75 0 103 -12t28 -47q0 -34 -17 -128l-76 -420q-39 -29 -77 0l-76 420q-16 94 -16 128zM557 1375q1 35 29 47t102 12t103 -12t29 -47q0 -34 -17 -128l-76 -420q-39 -29 -78 0l-76 420q-16 94 -16 128z" />
<glyph unicode="#" d="M37 379l22 131h213l80 301h-202l24 133h213l90 338h131l-92 -338h195l90 338h133l-92 -338h184l-18 -133h-203l-82 -301h180l-22 -131h-193l-104 -379h-123l100 379h-199l-104 -379h-121l101 379h-201zM397 510h199l80 301h-197z" />
<glyph unicode="$" d="M74 375q10 16 32 18t37 -14q29 -90 109 -174t182 -105l55 461l-65 29q-276 121 -277 342q-2 154 114 249t314 103l19 156q8 14 49 14t49 -14l-18 -158q76 -4 231 -41q35 -100 35 -266q-8 -13 -33 -17t-37 11q-20 66 -72 129t-136 86l-48 -398l101 -43q111 -47 193 -139 t83 -244q0 -152 -126 -252q-126 -101 -345 -108l-22 -190q-10 -14 -49 -14t-50 14l23 194q-186 10 -283 78q-29 31 -47 114t-18 179zM383 1012q0 -107 139 -181l43 359q-88 -6 -135 -55t-47 -123zM532 94q100 8 152 62t51 139q1 141 -153 223z" />
<glyph unicode="%" horiz-adv-x="1773" d="M88 913q0 147 83 273t247 125q164 0 247 -125t83 -273q0 -211 -139 -329q-78 -68 -191 -68t-192 68q-138 119 -138 329zM291 913q0 -315 131 -315q123 0 123 315t-123 316q-131 -1 -131 -316zM457 -33q414 737 757 1372q25 4 55 -10t38 -39q-414 -737 -758 -1372 q-27 -6 -55 8t-37 41zM1028 373q0 147 83 272t247 125t247 -125t83 -272q0 -210 -139 -330q-78 -68 -191 -68t-192 68q-138 119 -138 330zM1231 373q0 -315 131 -316q123 -1 123 315t-123 316q-131 0 -131 -315z" />
<glyph unicode="&#x26;" horiz-adv-x="1689" d="M114 343q0 167 120 270q94 84 198 126q-133 105 -133 249t104 234q105 89 244 89t226 -78t88 -197q1 -64 -21 -98q-22 -33 -34 -48q-12 -16 -36 -34q-26 -18 -34 -26t-37 -23l-27 -16q143 -76 305 -287q61 106 111 220t49 140q0 26 -55 37l-37 6q-14 8 -12 37t18 35h84 q84 0 403 12q16 -6 18 -34t-14 -37l-55 -9q-78 -12 -137 -61q-33 -25 -154 -205l-122 -186q-25 -35 -29 -53h4q0 4 2 0l11 -22q11 -20 52 -80q42 -60 58 -76t50 -46q60 -51 163 -51q104 0 186 55q13 -4 21 -20t4 -31q-50 -61 -156 -112t-229 -51t-189 25q-66 26 -88 62 q-4 8 -29 45t-38 68q-105 -100 -195 -150t-219 -51q-201 1 -320 103t-119 269zM387 416q0 -127 80 -203t197 -76q68 0 130 32q62 31 90 61t28 34t-33 62q-104 178 -306 307q-43 29 -51 29t-38 -26t-64 -86t-33 -134zM522 1078q0 -130 125 -210q23 -14 33 -16q24 8 56 72 t32 134t-32 116t-88 47q-56 0 -91 -43q-35 -42 -35 -100z" />
<glyph unicode="'" horiz-adv-x="518" d="M129 1375q1 35 29 47t102 12t102 -12t29 -47q0 -34 -16 -128l-76 -420q-39 -29 -78 0l-76 420q-16 94 -16 128z" />
<glyph unicode="(" horiz-adv-x="696" d="M172 553q0 276 120 519t349 368q35 -2 35 -39q-156 -139 -230 -371t-75 -477q1 -246 75 -477t230 -371q0 -37 -35 -39q-229 125 -349 368t-120 519z" />
<glyph unicode=")" horiz-adv-x="696" d="M20 -295q156 139 231 371t75 477q0 246 -75 477t-231 371q0 37 35 39q229 -125 349 -368t120 -519t-120 -519t-349 -368q-35 2 -35 39z" />
<glyph unicode="*" horiz-adv-x="829" d="M70 846l235 166l-235 166q-4 16 4 33t22 26l260 -133l27 272q35 20 63 0l27 -272l254 135q17 -4 27 -22t6 -41l-234 -164l232 -160q10 -43 -29 -64l-256 132l-27 -271q-8 -8 -30 -8t-33 8l-27 271l-260 -132q-14 6 -22 24t-4 34z" />
<glyph unicode="+" d="M123 362v148h321v326h181v-326h319v-148h-319v-362h-181v362h-321z" />
<glyph unicode="," horiz-adv-x="532" d="M79 -250q-7 27 11 37q72 27 127 79t55 120q0 100 -118 133q-64 19 -64 83t43 103t113 39t136 -66t67 -204q1 -136 -95 -228t-241 -125q-27 2 -34 29z" />
<glyph unicode="-" horiz-adv-x="671" d="M61 398q0 48 31 87l490 45q28 -33 28 -83t-26 -82l-492 -46q-31 31 -31 79z" />
<glyph unicode="." horiz-adv-x="532" d="M100 137q0 72 48 121t119 49t118 -51t47 -121t-46 -117t-116 -47t-120 47t-50 119z" />
<glyph unicode="/" horiz-adv-x="694" d="M41 -33l428 1417h184l-428 -1417h-184z" />
<glyph unicode="0" d="M59 638q0 377 205 569q110 104 268 104q158 1 269 -103q203 -189 204 -567t-204 -568q-111 -101 -269 -101t-268 100q-204 188 -205 566zM358 641q0 -86 6 -169q20 -251 76 -345q37 -61 92 -61q168 0 175 575q-1 171 -23 311t-59 202t-93 62q-138 1 -167 -406 q-7 -83 -7 -169z" />
<glyph unicode="1" d="M197 28q-2 30 12 38l84 6q76 6 94 38t19 154v662q0 104 -16 137t-83 41l-94 12q-14 8 -15 36t11 36q195 27 344 86q43 16 69 26t31 11q23 0 29 -23q-6 -70 -6 -244v-780q0 -122 18 -154t94 -38l84 -6q14 -8 12 -38t-16 -34q-112 6 -328 6t-327 -6q-14 4 -16 34z" />
<glyph unicode="2" d="M41 39q188 174 316 314q128 139 199 269t71 259q1 129 -61 199t-163 71q-154 0 -264 -188q-18 -13 -42 -5t-25 33q61 152 189 236t293 84q165 1 270 -99q106 -100 106 -236t-65 -242t-244 -277l-99 -92q-109 -100 -108 -129q0 -25 39 -25h247q117 0 154 16t80 97 q10 12 37 9t33 -22q-14 -92 -44 -185t-57 -132q-123 6 -287 6h-325q-176 0 -230 -6q-29 6 -20 45z" />
<glyph unicode="3" d="M55 31q0 45 33 79t77 34t70 -19q26 -18 39 -33q12 -16 18 -23t14 -19q34 -62 108 -62q73 0 169 99q95 99 95 253t-66 242t-174 88t-202 -86q-31 6 -47 34q-15 29 -1 64q236 88 326 163t90 187q0 58 -47 104t-121 46q-139 0 -252 -170q-20 -6 -39 7q-18 13 -18 32 q61 123 175 191t258 69q144 0 233 -66q88 -66 88 -170q-1 -74 -53 -136t-205 -128q-25 -12 -2 -23q8 -4 20 -4q141 4 243 -85t101 -232q0 -244 -235 -418q-227 -164 -474 -164q-92 0 -156 36t-65 110z" />
<glyph unicode="4" d="M25 446l665 951q35 49 68 49h59q61 0 21 -55l-615 -852q-16 -19 -8 -31t53 -12h252q33 0 40 9t7 50v287q0 57 45 73q150 63 199 64q27 0 27 -35v-389q0 -41 7 -50t40 -9h135q22 -12 22 -56t-22 -59h-135q-33 0 -40 -9t-7 -50v-58q0 -124 17 -156t85 -38l43 -4 q14 -8 12 -38t-16 -34q-111 6 -305 6t-299 -6q-14 4 -17 34q-2 30 13 38l84 6q76 6 94 36t18 156v58q0 41 -7 50t-40 9h-473q-37 16 -22 65z" />
<glyph unicode="5" d="M81 -87q-5 36 15 50q274 12 410 92q190 113 190 277q0 84 -36 146t-82 95q-47 33 -127 56q-81 23 -133 29t-116 12q-64 4 -77 19q-12 15 -2 52l123 471q10 36 24 46t68 16l543 65q23 0 22 -24q-31 -133 -112 -211l-463 -51q-35 -4 -47 -60l-13 -47q-8 -33 6 -44t50 -15 q281 -33 396 -91q238 -118 238 -352q0 -283 -294 -442q-236 -127 -555 -135q-23 10 -28 46z" />
<glyph unicode="6" d="M59 520q0 172 72 336q142 322 493 477q175 78 355 86q16 -9 18 -31t-12 -40q-178 -43 -279 -109t-194 -178q-154 -190 -154 -522q0 -181 60 -327t166 -146q84 0 120 70t35 156q0 203 -96 323q-55 71 -137 71q-12 2 -47 -2q-18 12 -15 37q30 33 92 61t113 29 q181 0 275 -113t94 -274q0 -203 -128 -328t-349 -125q-221 -1 -351 151t-131 398z" />
<glyph unicode="7" d="M20 981q23 66 80 307q103 -6 246 -6h393q256 0 297 6q23 -6 19 -33q-68 -102 -203 -337l-590 -1045q-28 -6 -62 13t-36 51l538 935q68 119 68 162q0 33 -59 33h-435q-88 0 -118 -17t-68 -83q-12 -15 -38 -9t-32 23z" />
<glyph unicode="8" d="M74 303q0 203 270 340q-217 119 -217 315q0 154 116 253t298 99t292 -86q110 -87 109 -233q0 -99 -59 -161t-164 -121q274 -139 274 -383q0 -154 -121 -254q-120 -100 -330 -101q-210 0 -339 86t-129 246zM338 326q0 -111 59 -186q60 -74 145 -74t134 52t49 152t-71 176 q-71 74 -212 140q-104 -104 -104 -260zM377 1026q0 -152 237 -254q98 59 99 223q0 100 -52 161t-121 61q-69 -1 -116 -55t-47 -136z" />
<glyph unicode="9" d="M57 862q0 195 131 322t341 127t340 -152t130 -375q0 -362 -282 -622q-125 -117 -304 -199t-311 -86q-18 8 -20 33t12 35q289 72 448 298t158 521q0 144 -33 251q-33 109 -77 155t-111 46t-107 -70t-40 -188t54 -224t153 -126q27 -4 57 -4q16 -10 12 -43q-59 -63 -203 -63 t-246 105q-101 105 -102 259z" />
<glyph unicode=":" horiz-adv-x="532" d="M100 137q0 72 48 121t119 49t118 -51t47 -121t-46 -117t-116 -47t-120 47t-50 119zM100 634q0 73 48 123t119 50t118 -52t47 -123t-46 -116t-116 -45t-120 45t-50 118z" />
<glyph unicode=";" horiz-adv-x="532" d="M79 -250q-7 27 11 37q72 27 127 79t55 120q0 100 -118 133q-64 19 -64 83t43 103t113 39t136 -66t67 -204q1 -136 -95 -228t-241 -125q-27 2 -34 29zM100 634q0 73 48 123t119 50t118 -52t47 -123t-46 -116t-116 -45t-120 45t-50 118z" />
<glyph unicode="&#x3c;" d="M135 362v121l797 365v-170l-586 -252v-4l586 -254v-168z" />
<glyph unicode="=" d="M123 217v148h821v-148h-821zM123 512v147h821v-147h-821z" />
<glyph unicode="&#x3e;" d="M135 0v168l586 254v4l-586 252v170l797 -365v-121z" />
<glyph unicode="?" horiz-adv-x="679" d="M82 1192q0 57 40 94t103 37q143 0 258 -126t115 -289t-129 -222l-135 -61q-84 -37 -84 -88t20 -111q-8 -14 -32 -18t-35 8q-31 44 -61 114t-29 138q0 68 41 109q41 40 143 83l96 41q53 23 76 38t23 36q0 47 -69 69t-228 21q-37 0 -75 35t-38 92zM102 137q0 72 48 121 t120 49q70 0 117 -51t47 -121t-46 -117t-116 -47t-120 47t-50 119z" />
<glyph unicode="@" horiz-adv-x="1574" d="M82 332q0 346 242 561t579 215q279 0 439 -161t161 -380q0 -219 -145 -351t-397 -132q-53 0 -95 14t-43 43q0 14 19 66l43 112l-4 3q-78 -94 -192 -166t-168 -72t-78 27q-23 27 -23 65t39 127q96 222 307 369q109 76 213 76q53 0 70 -33l49 92q20 4 32 4q70 0 109 -29 q-9 -30 -113 -270t-118 -278t-9 -53q6 -15 37 -15q135 0 247 106t112 296q1 190 -141 319t-351 129q-274 0 -450 -204t-177 -482q0 -154 74 -288q140 -257 508 -257q140 0 305 68q13 -6 21 -29t-2 -37q-172 -94 -400 -94q-279 0 -484 155q-99 76 -158 201q-58 125 -58 283z M633 236q0 -29 20 -29q39 1 111 67t145 181q74 115 92 174q-20 51 -55 51q-36 0 -110 -67t-139 -191t-64 -186z" />
<glyph unicode="A" horiz-adv-x="1277" d="M-60 32q0 23 11 34l55 6q43 6 72 26t53 76q51 123 129 328l186 499q27 74 43 113q34 86 34 134q0 7 -1 14q58 13 91 41q35 29 51 45l36 36q37 0 48 -41q25 -86 92 -280l278 -803q37 -102 61 -138t76 -44l78 -12q10 -8 10 -35t-12 -37q-147 6 -299 6t-293 -6 q-16 10 -18 35t14 37l66 10q55 10 55 35q0 18 -39 139l-55 176q-8 25 -26 31t-72 6h-244q-37 0 -48 -6t-20 -35l-80 -238q-14 -47 -14 -73q0 -20 84 -35l61 -10q11 -12 11 -39t-15 -33q-18 2 -231 6l-211 -6q-17 9 -17 38zM414 582q8 -10 47 -11h192h6q31 0 38 9q3 4 3 13 q0 13 -6 38l-53 166q-61 190 -84 241q-4 -12 -21 -60q-16 -48 -34 -99t-33 -93l-51 -153q-7 -25 -7 -38q0 -9 3 -13z" />
<glyph unicode="B" horiz-adv-x="1300" d="M57 33q0 29 13 33l59 12q70 14 87 48t17 169v723q0 158 -13 194t-77 45l-55 9q-14 8 -14 40t22 33q281 19 540 19t394 -81t135 -255q-1 -113 -69 -175q-68 -61 -124 -75t-57 -29q0 -10 29 -16q131 -29 215 -114t86 -222v-11q0 -129 -65 -213q-68 -87 -194 -131t-388 -44 l-211 8q-141 0 -317 -6q-12 10 -13 39zM516 346q0 -136 35 -198t145 -62t171 78t61 210t-78 215t-221 83q-85 0 -99 -12t-14 -72v-242zM516 819q0 -41 15 -49t94 -8q123 0 182 66t59 182t-70 185q-71 69 -182 69q-70 0 -84 -18t-14 -89v-338z" />
<glyph unicode="C" horiz-adv-x="1411" d="M82 660q0 338 248 542q219 182 567 182q150 0 277 -25t145 -28q0 -162 24 -319q-7 -18 -37 -24t-40 9q-86 293 -385 293q-188 0 -330 -157q-141 -158 -141 -447t142 -457t339 -168q291 0 418 318q12 12 41 8t36 -22q-23 -229 -77 -322q-272 -76 -416 -76q-342 0 -551 156 q-260 199 -260 537z" />
<glyph unicode="D" horiz-adv-x="1624" d="M53 31q0 27 13 35l63 10q70 10 87 45t17 174v725q0 154 -15 194t-83 50l-39 4q-16 8 -15 39t19 32q308 19 574 19t458 -69t301 -231t109 -366t-95 -362t-279 -250t-511 -92l-272 12q-143 0 -319 -6q-12 10 -13 37zM526 371q0 -182 41 -230q53 -59 175 -59t217 52 q166 91 228 331q25 96 25 203v8q0 280 -145 434t-420 154q-85 0 -103 -23t-18 -123v-747z" />
<glyph unicode="E" horiz-adv-x="1214" d="M20 31q0 27 13 35l96 14q72 10 88 43t16 172v764q0 137 -16 170t-88 47l-51 10q-14 8 -12 36t16 36q143 -6 295 -6h434q236 0 274 6l27 -318q-6 -16 -34 -19t-42 11q-37 119 -78 162q-63 63 -200 63h-164q-48 0 -58 -11t-10 -68v-359q0 -43 8 -52t50 -9h141q82 0 110 19 t42 93l10 52q10 12 39 12t37 -14q-7 -117 -7 -225.5t7 -209.5q-8 -14 -37 -15t-39 13l-10 52q-14 74 -43 94t-109 20h-141q-41 0 -49 -9t-9 -54v-244q0 -148 26 -186t72 -50q44 -12 137 -12t131 5t85 28t81 71t77 134q12 16 41 12t34 -22q-6 -76 -34 -180t-52 -148 q-162 6 -473 6h-266q-123 0 -352 -6q-12 10 -13 37z" />
<glyph unicode="F" horiz-adv-x="1122" d="M49 31q0 27 12 35l68 10q70 10 87 45t17 174v762q0 141 -17 177t-87 46l-41 6q-14 8 -13 37t17 35q131 -6 289 -6h430q233 0 276 6q0 -182 5 -320q-6 -16 -33 -18t-45 10q-35 127 -60 160q-54 67 -196 67h-4h-160q-48 0 -58 -11t-10 -72v-371q0 -43 8 -52t50 -10h157 q82 1 110 21t42 94l10 49q10 13 39 13t39 -15q-6 -98 -6 -219t6 -213q-10 -14 -39 -15t-39 13l-10 49q-14 74 -42 94t-110 21h-157q-41 0 -49 -9t-9 -53v-276q0 -141 18 -175t87 -44l76 -10q10 -10 10 -36t-10 -36q-189 6 -325 6t-321 -6q-12 10 -12 37z" />
<glyph unicode="G" horiz-adv-x="1503" d="M82 647q0 207 90 368t280 265t470 104q133 0 263 -24t142 -25q2 -18 7 -123t22 -206q-6 -16 -37 -18t-41 13q-98 289 -385 289q-233 0 -358 -168t-125 -426q0 -399 233 -557q117 -78 281 -78q88 0 114 29t27 127v129q0 82 -18 105t-93 32l-90 13q-16 8 -16 34t16 37 q218 -6 364 -6t251 6q12 -10 12 -37t-12 -34l-47 -9q-47 -8 -61 -33q-13 -26 -13 -108v-115q0 -73 8 -101t35 -34q6 -6 4 -25t-10 -24q-109 -17 -155 -33t-158 -31t-193 -16q-221 0 -405 73q-184 72 -293 236t-109 371z" />
<glyph unicode="H" horiz-adv-x="1650" d="M68 31q0 27 12 35l49 6q72 10 88 45t16 178v762q0 143 -16 178t-88 45l-49 6q-12 8 -12 35t12 37q150 -6 302 -6t288 6q12 -10 12 -37t-12 -35l-43 -6q-68 -10 -84 -46t-17 -177v-238q0 -45 12 -53t74 -8h426q63 0 75 8q11 8 11 53v238q0 141 -16 176t-88 45l-55 8 q-12 8 -13 35q0 27 13 37q170 -6 314 -6t286 6q12 -10 12 -37t-12 -35l-41 -6q-72 -10 -89 -46t-18 -177v-762v-15q0 -128 17 -160q18 -34 90 -46l49 -8q12 -10 12 -36t-12 -36q-155 6 -303 6t-295 -6q-12 10 -12 37t12 35l45 6q72 10 88 45t16 178v295q0 43 -11 51 q-12 8 -75 8h-426q-63 0 -74 -8t-12 -51v-295q0 -141 18 -176t87 -45l65 -8q12 -8 12 -35t-12 -37q-176 6 -317 6t-299 -6q-12 10 -12 37z" />
<glyph unicode="I" horiz-adv-x="759" d="M57 31q0 27 13 35l57 10q72 12 89 47t17 176v754q0 141 -17 176t-89 47l-57 10q-12 8 -13 35q0 27 13 37q166 -6 310 -6t310 6q12 -10 12 -37t-12 -35l-57 -10q-71 -12 -89 -47t-18 -176v-754q0 -141 18 -176t89 -47l57 -10q12 -10 11 -36t-13 -36q-166 6 -309 6t-309 -6 q-12 10 -13 37z" />
<glyph unicode="J" horiz-adv-x="784" d="M-61 -211q27 27 61 27t100 -52q67 -51 89 -51h1q84 0 84 570v770q0 141 -17 176t-89 45l-78 12q-12 8 -12 35t12 37q197 -6 337 -6t300 6q12 -10 12 -37t-12 -35l-53 -10q-72 -14 -89 -48t-18 -175v-742q0 -270 -47 -395q-121 -313 -479 -328h-11q-51 0 -96 16 q-49 18 -49 74q0 58 54 111z" />
<glyph unicode="K" horiz-adv-x="1464" d="M55 1321q0 27 17 37q154 -6 303 -6t313 6q14 -10 14 -37t-14 -35l-57 -8q-69 -10 -87 -45t-18 -176v-250q0 -47 8 -61t34 -15q24 0 74 40t85 79q242 270 281 326t39 71q0 20 -35 27l-72 12q-16 10 -14 38t22 34q156 -6 268 -6t234 6q18 -6 20 -33t-10 -39 q-123 -14 -176 -37q-113 -45 -303 -262l-94 -106q-27 -29 -27 -46t48 -89t172 -264q123 -192 189 -276t99 -104t80 -26l65 -10q9 -12 9 -32v-7q-2 -25 -15 -33q-153 6 -299 6t-317 -6q-20 6 -21 35q0 29 17 37l51 12q35 10 35 20q0 16 -17 41l-227 348q-61 94 -92 128 t-63 34q-32 1 -40 -25t-8 -114v-215q0 -141 18 -176t87 -45l57 -8q12 -10 12 -36t-12 -36q-164 6 -308 6t-308 -6q-12 10 -13 37q0 27 13 35l57 8q70 10 87 45t17 176v762q0 141 -17 176t-87 45l-57 8q-16 8 -17 35z" />
<glyph unicode="L" horiz-adv-x="1198" d="M41 30v7q0 20 10 29l78 10q70 10 87 44t17 175v762q0 141 -17 176t-87 45l-59 8q-16 8 -16 36q1 28 20 36q160 -6 308 -6t302 6q12 -10 12 -37t-12 -35l-53 -8q-69 -10 -87 -45t-18 -176v-717q0 -152 29 -188t71 -47t136 -11t133 4t84 29t80 73t80 138q12 14 40 10 t38 -22q-8 -76 -37 -182t-52 -150q-162 6 -473 6h-274q-133 0 -324 -6q-14 10 -16 36z" />
<glyph unicode="M" horiz-adv-x="1859" d="M23 29v7q0 23 12 30l37 6q80 14 100 39t26 94t11 141q4 72 18 317t15 453q0 82 -30 116t-97 46l-45 8q-12 12 -12 40q1 28 18 32q104 -6 244 -6t215 6q0 -98 64 -237q11 -25 48 -103t49 -105l135 -288q12 -27 121 -222q51 94 115 234l104 225q110 240 142 326 q31 86 53 170q72 -6 200 -6t238 6q16 -8 18 -33v-6q0 -21 -12 -33l-59 -10q-69 -12 -97 -41t-28 -107q0 -557 16 -901q4 -79 20 -113t73 -40l65 -8q12 -12 11 -39t-15 -33q-141 6 -290 6t-296 -6q-18 8 -20 35t14 37l62 8q68 8 81 35t13 127l-4 532v233h-4 q-346 -748 -451 -1015q-18 -14 -47 -14t-47 12q-51 166 -230 554q-179 389 -217 474h-4q-16 -282 -16 -791q0 -79 17 -107t77 -36l80 -12q12 -10 10 -37t-14 -35q-112 6 -228 6t-239 -6q-18 6 -20 35z" />
<glyph unicode="N" horiz-adv-x="1531" d="M28 1326q3 28 17 32q145 -6 267 -6t188 6q24 -98 206 -310q36 -42 132 -157l172 -203q158 -186 196 -225q8 20 8 92v283q0 299 -30 374q-23 51 -119 66l-55 8q-12 12 -12 37q1 25 12 35q166 -6 274 -6t229 6q9 -10 11 -35v-6q0 -20 -11 -31l-36 -6q-88 -14 -111 -68 q-31 -75 -31 -374v-490q0 -262 4 -330q-10 -18 -47 -32t-73 -15l-21 29q-58 89 -145 195l-473 585q-195 238 -224 262q-10 -20 -10 -131v-397q0 -299 31 -375q23 -51 119 -65l57 -8q12 -12 11 -37t-11 -35q-167 6 -277 6t-227 -6q-10 10 -11 35t11 37l35 6q94 16 113 67 q28 68 28 355v20v520q0 141 -14 174q-27 57 -117 70l-57 8q-10 10 -10 29q0 5 1 11z" />
<glyph unicode="O" horiz-adv-x="1613" d="M82 660q0 312 207 518t525 206t518 -196t200 -516q0 -322 -203 -513t-526 -191t-522 190t-199 502zM410 734q0 -241 85 -439q44 -104 131 -169t205 -65q190 0 282 163q91 163 91 432t-110 452q-111 182 -296 182t-287 -157q-101 -158 -101 -399z" />
<glyph unicode="P" horiz-adv-x="1230" d="M57 30v5q0 21 15 28l57 11q70 12 87 47t17 174v725q0 158 -13 196t-77 46l-63 8q-14 8 -13 34t17 35q244 19 476 19t356 -47q266 -102 266 -361q0 -118 -52 -200q-81 -128 -277 -170q-70 -15 -135 -15q-25 0 -48 2q-12 9 -14 27t8 29q120 37 162 117t42 208 q0 127 -66 221q-67 94 -196 95q-53 0 -66 -20t-14 -85v-864q0 -141 18 -176t87 -45l65 -11q16 -7 16 -33t-16 -36q-172 6 -313 6t-307 -6q-16 10 -19 36z" />
<glyph unicode="Q" horiz-adv-x="1613" d="M82 672q0 300 207 506t525 206t518 -194t200 -510q0 -246 -114 -416t-314 -246q-20 -12 18 -47q264 -248 445 -295q68 -16 133 -16t108 16q22 -10 22 -31q0 -8 -3 -18q-109 -76 -293 -76q-397 0 -739 353q-27 29 -45 47t-64 22q-260 23 -432 211t-172 488zM410 734 q0 -241 85 -439q44 -104 131 -170t205 -66q190 0 282 164q91 164 91 433t-110 452q-111 182 -296 182t-287 -157q-101 -158 -101 -399z" />
<glyph unicode="R" horiz-adv-x="1359" d="M61 31q0 27 13 35l55 10q70 12 87 46t17 173v725q0 156 -13 194t-77 46l-55 8q-16 8 -15 36t19 35q276 19 532 19t377 -74q180 -106 181 -303q0 -121 -62 -191t-155 -116q-25 -12 -11 -45q111 -225 180 -339q134 -221 275 -231q12 -8 14 -26v-7q0 -13 -6 -20 q-43 -18 -172 -18q-255 0 -387 215q-78 129 -160 317q-33 72 -108 72q-52 0 -64 -7t-12 -38v-252q0 -139 17 -173t87 -46l56 -10q10 -8 10 -35t-10 -37q-162 6 -301 6t-299 -6q-12 10 -13 37zM514 760q0 -54 18 -66t112 -12t161 66q65 66 65 208t-73 225q-74 83 -195 83 q-64 0 -76 -16t-12 -89v-399z" />
<glyph unicode="S" horiz-adv-x="1036" d="M47 377q10 20 38 21t40 -15q37 -117 135 -219t210 -102t170 60q58 62 58 146q0 186 -278 326q-309 156 -309 399v5q0 172 126 279q127 107 345 107h4q125 0 233 -32q35 -10 70 -17q37 -100 37 -293q-8 -18 -37 -20t-43 14q-33 98 -102 176t-168 78t-154 -55t-55 -129 t52 -135t134 -105l135 -71q289 -154 289 -412q0 -188 -141 -302q-142 -114 -364 -114t-359 78q-29 33 -47 129t-19 203z" />
<glyph unicode="T" horiz-adv-x="1320" d="M16 1044q43 152 68 349q14 10 30 10t27 -8q8 -29 35 -36t137 -7h762q106 0 139 7t46 38q12 6 29 6t28 -14q-32 -109 -32 -280q0 -35 1 -73q-8 -14 -38 -16t-38 10q-16 61 -27 93t-35 68q-44 66 -155 66h-123q-37 0 -46 -10t-9 -49v-903v-15q0 -128 17 -160q18 -34 88 -44 l81 -10q11 -8 11 -35t-11 -37q-199 6 -329 6t-346 -6q-12 10 -13 36q0 26 13 36l92 10q70 8 87 43t17 176v903q0 39 -7 49t-42 10h-127q-104 0 -152 -51t-102 -180q-18 -10 -43 -5t-33 23z" />
<glyph unicode="U" horiz-adv-x="1515" d="M55 1323q0 27 17 35q147 -6 299 -6t299 6q12 -10 12 -35t-12 -35l-49 -8q-70 -12 -87 -47t-18 -176v-473q0 -290 84 -398q36 -46 100 -76t154 -30q342 0 342 510v248q0 303 -31 374q-20 47 -118 66l-56 10q-12 12 -11 36t11 34q166 -6 277 -6t227 6q11 -11 11 -38 q0 -21 -11 -32l-37 -8q-90 -20 -110 -68q-31 -72 -31 -374v-230q0 -168 -27 -288t-104 -205q-138 -147 -404 -147t-412 119q-146 120 -147 458v512q0 139 -16 173t-88 48l-51 10q-12 8 -13 35z" />
<glyph unicode="V" horiz-adv-x="1314" d="M-67 1327q3 23 18 31l278 -6q119 0 308 6q12 -8 12 -32t-10 -38l-62 -12q-51 -12 -51 -39q0 -20 82 -225l248 -633q49 104 73 166l78 192q183 463 185 502q0 18 -66 35l-65 14q-12 12 -12 37q1 25 20 33q145 -6 249 -6t193 6q13 -7 13 -39q0 -24 -9 -31l-53 -10 q-86 -16 -119 -68q-53 -80 -166 -348l-149 -354q-61 -142 -127 -318t-78 -206q-27 -16 -67 -16t-60 16q-10 24 -41 110t-45 123l-332 834q-55 141 -79 173t-74 44l-82 20q-10 14 -10 33v6z" />
<glyph unicode="W" horiz-adv-x="1966" d="M-51 1358q113 -6 255 -6t259 6q12 -6 15 -34t-11 -38l-37 -6q-51 -8 -51 -31q0 -14 106 -254l203 -452q39 -84 113 -234q41 70 104 211l27 60q20 47 20 69t-22 78l-197 432q-35 78 -58 98q-24 20 -81 27l-21 2q-14 12 -12 39t19 33q130 -6 272 -6t221 6q17 -4 19 -34 t-11 -38l-34 -8q-55 -14 -56 -29q0 -20 19 -61l61 -141q25 -57 64 -136l82 181q59 133 59 151t-41 29l-74 14q-10 10 -9 37t15 35q88 -6 209 -6t201 6q12 -8 14 -36t-12 -38l-57 -12q-42 -8 -58 -16q-58 -26 -208 -328q-62 -122 -62 -138t16 -53l97 -207q59 -125 94 -206 q307 744 335 810q27 64 27 100v3q0 18 -59 37l-45 12q-12 14 -10 39t16 33q97 -6 205 -6t194 6q14 -8 16 -34v-8q0 -20 -9 -30l-62 -14q-70 -14 -92 -45q-41 -59 -91 -174q-348 -808 -446 -1069q-20 -16 -60 -16t-63 16q-8 20 -77 180l-86 194q-55 129 -74 158 q-33 -61 -70 -141l-94 -199q-14 -29 -41 -92t-45 -100q-16 -16 -56 -16t-69 16q-41 109 -184 424l-334 722q-41 90 -62 113q-22 23 -73 33l-51 10q-11 13 -11 35q0 28 19 37z" />
<glyph unicode="X" horiz-adv-x="1361" d="M-36 26q-1 5 -1 10q0 17 12 25l48 7q86 12 133 46q46 34 118 129t244 351q29 41 29 62q-1 21 -25 56q-24 36 -136 206t-158 236t-85 90t-108 36l-35 6q-14 12 -13 38t15 34q98 -6 316 -6t315 6q16 -8 18 -34t-10 -38l-45 -8q-70 -12 -70 -33t54 -115t172 -264 q154 231 192 296q37 63 37 88q0 15 -41 22l-82 14q-12 10 -11 37t17 35q96 -6 236 -6t237 6q15 -8 17 -33t-8 -39l-86 -12q-76 -10 -114 -48t-87 -98t-115 -153q-67 -93 -97 -135t-30 -58t29 -59q219 -340 299 -460q80 -121 124 -151t105 -38l64 -8q10 -9 10 -29v-7 q-2 -26 -16 -36q-134 6 -316 6t-348 -6q-14 6 -17 35t11 37l55 6q76 8 76 28t-41 91t-127 203t-109 161q-143 -209 -243 -401q-19 -36 -19 -56t66 -26l53 -6q14 -10 12 -38t-18 -34q-135 6 -263 6t-220 -6q-16 8 -20 32z" />
<glyph unicode="Y" horiz-adv-x="1177" d="M-53 1326q2 28 20 32q139 -6 311 -6t277 6q14 -6 16 -33t-12 -39l-70 -16q-49 -10 -49 -19q0 -25 54 -143l96 -219q44 -96 69 -147q26 -50 33 -66q30 47 152 290t123 279q0 18 -82 33l-39 8q-12 8 -12 36t14 36q124 -6 232 -6t198 6q19 -6 19 -38q0 -25 -11 -34l-53 -10 q-78 -12 -107 -49q-59 -74 -178 -291l-129 -234q-41 -74 -54 -126t-13 -138v-143q0 -141 17 -175t87 -44l82 -10q10 -10 10 -36t-10 -36q-201 6 -336 6t-317 -6q-12 10 -13 36q0 26 13 36l69 10q70 10 87 45t18 174v102q0 82 -9 124t-47 120l-243 504q-35 69 -58 95t-73 34 l-70 12q-12 10 -12 33v7z" />
<glyph unicode="Z" horiz-adv-x="1257" d="M23 29q23 25 188 274l403 615q190 295 193 327q0 12 -70 12h-221q-212 0 -279 -95q-32 -44 -71 -140q-20 -12 -47 -7t-37 21q37 139 80 363q6 6 23 6t30 -4q10 -33 37 -41t137 -8h586q188 0 239 6q16 -10 13 -31q-76 -80 -307 -438l-224 -346q-27 -41 -140 -219 t-118 -203q0 -27 189 -27h190q158 0 230 45t153 213q18 12 44 7t36 -21q-10 -86 -38 -197t-52 -147q-258 6 -428 6h-516q-158 0 -207 -6q-18 7 -18 23q0 5 2 12z" />
<glyph unicode="[" horiz-adv-x="696" d="M248 -311v1720q48 2 186 2t199 -8q12 -6 12 -32t-10 -32l-141 -22q-50 -9 -64 -63t-14 -265v-880q0 -211 13 -265t65 -63l141 -23q10 -6 10 -32t-12 -31q-61 -8 -199 -8t-186 2z" />
<glyph unicode="\" horiz-adv-x="657" d="M41 1384h184l391 -1417h-184z" />
<glyph unicode="]" horiz-adv-x="696" d="M51 -273q0 26 10 31l142 23q51 8 64 62t14 266v880q1 211 -13 265t-65 63l-142 22q-10 6 -10 32t12 32q61 8 200 8t186 -2v-1720q-47 -2 -185 -2t-201 8q-12 6 -12 32z" />
<glyph unicode="^" d="M123 500l342 782h139l340 -782h-182l-227 538l-228 -538h-184z" />
<glyph unicode="_" horiz-adv-x="1024" d="M0 -154h1024v-102h-1024v102z" />
<glyph unicode="`" horiz-adv-x="778" d="M180 1296q0 30 52 69q52 37 84 37q34 0 63 -61l186 -372q-6 -39 -51 -33l-289 285q-45 45 -45 75z" />
<glyph unicode="a" horiz-adv-x="907" d="M66 174q0 90 50 141t146 80t209 62q45 12 49 41q4 45 4 92t-29 100q-30 53 -89 53q-88 0 -107 -116q-6 -43 -32 -63q-25 -20 -73 -34q-48 -16 -77 -16q-47 0 -47 51q0 80 98 158q158 125 344 125q263 0 263 -269q0 -14 -1 -28l-14 -270q-1 -16 -1 -31q0 -70 24 -105 q30 -41 67 -41t80 25q14 -2 21 -17q4 -10 4 -19q0 -5 -1 -11q-28 -35 -94 -73t-148 -38t-167 72q-19 16 -31 16t-45 -22q-90 -66 -180 -66q-90 1 -157 57q-66 56 -66 146zM328 227q0 -49 30 -86t75 -37q44 0 60 24q15 24 17 77l4 129q1 10 1 17q0 11 -2 15q-2 5 -9 5h-4 q-172 -23 -172 -144z" />
<glyph unicode="b" horiz-adv-x="1089" d="M49 1318q0 20 10 32q106 25 316 114q23 0 35 -14q-9 -113 -9 -299v-309q0 -45 25 -51q106 57 217 57q171 0 277 -116t106 -294q0 -219 -139 -343t-365 -124q-131 0 -219 37q-45 18 -73 18t-60 -30q-23 -4 -41 14q6 39 6 203v926q0 69 -6 91t-35 38l-35 20q-10 10 -10 30z M401 289q0 -94 43 -159q43 -64 128 -64t128 87t43 231t-67 240q-68 95 -174 95h-5q-47 0 -71 -17q-25 -18 -25 -100v-313z" />
<glyph unicode="c" horiz-adv-x="851" d="M63 400q1 196 149 322t363 126q121 0 216 -35q43 -37 43 -94t-18 -93t-40 -36q-23 0 -28 10q-109 154 -207 154q-97 0 -153 -89t-56 -212t79 -221q78 -97 205 -97h3q129 0 188 101q21 2 37 -10t16 -36q-39 -88 -133 -154q-93 -65 -225 -65h-4q-193 0 -314 116 q-121 117 -121 313z" />
<glyph unicode="d" horiz-adv-x="1099" d="M63 375q1 213 141 343t347 130q80 0 117 -10q20 8 20 39v262q0 69 -6 91t-35 38l-35 20q-12 10 -11 30t11 32q121 29 314 114q23 0 35 -14q-7 -125 -7 -299v-815q0 -144 10 -192t37 -48q41 0 89 17q17 -15 17 -47q0 -27 -15 -41q-175 -12 -294 -52q-34 -10 -55 -16 l-20 -6q-27 0 -35 29l6 63q-4 27 -18 16q-139 -88 -221 -88q-172 0 -282 117t-110 287zM350 446q0 -138 58 -237q58 -100 172 -100q43 0 84 24q24 17 24 78v397q0 41 -14 70q-43 76 -122 76t-140 -85q-62 -85 -62 -223z" />
<glyph unicode="e" horiz-adv-x="860" d="M66 398q0 186 125 318q126 132 317 132q154 0 241 -85t87 -210q0 -68 -74 -68h-393q-35 0 -43 -6t-9 -30q0 -123 77 -213t208 -90t195 106q17 4 35 -9t18 -38q-58 -121 -156 -177t-202 -57q-199 0 -313 121q-113 120 -113 306zM334 606q0 -20 20 -26q17 -5 59 -5h15h76h7 q48 0 69 13q22 14 22 59t-29 76t-85 31t-104 -48q-50 -48 -50 -100z" />
<glyph unicode="f" horiz-adv-x="636" d="M33 735v8q0 14 6 21l88 45q45 25 45 53q0 205 57 338q117 264 402 264q94 0 167 -46q72 -45 72 -120q0 -53 -32 -83q-32 -29 -84 -29q-51 0 -84 37q-106 135 -146 135q-86 0 -86 -250v-231q0 -41 7 -49t47 -9h194q14 -8 14 -50t-26 -60h-182q-38 -1 -46 -9t-8 -49v-413 q0 -111 12 -139t64 -31l68 -7q12 -7 12 -33t-14 -34q-144 6 -284 6t-237 -6q-14 8 -14 34t12 33l33 5q55 6 69 33q13 28 13 139v413q0 41 -7 49t-44 9h-76q-10 6 -12 26z" />
<glyph unicode="g" horiz-adv-x="980" d="M39 -289q0 63 65 103q20 12 54 34t47 29q35 20 2 29q-57 18 -92 64t-35 88t14 55q98 63 131 96q29 23 17 45q-78 32 -126 102t-48 162q0 138 104 234t282 96t318 -76h236q18 -16 18 -65t-31 -68h-151q6 -29 6 -83q0 -118 -88 -227q-45 -54 -131 -87t-201 -33q-16 0 -84 6 q-35 -14 -35 -48t29 -54t76 -21l250 4q317 0 317 -248q0 -94 -51 -176t-133 -133q-152 -90 -358 -90t-304 77t-98 185zM287 -213q0 -104 72 -167q73 -62 181 -62t169 44q59 44 59 122t-55 120q-56 41 -146 41h-137q-80 0 -115 -26q-29 -27 -28 -72zM334 544q0 -106 40 -174 t96 -69q122 0 122 215q0 113 -37 175q-37 63 -92 63t-92 -52t-37 -158z" />
<glyph unicode="h" horiz-adv-x="1120" d="M39 30q0 28 12 36l37 4q51 6 64 33q12 29 12 135v901q0 69 -6 91t-35 38l-35 20q-10 10 -10 30t10 32q86 20 313 114q23 0 35 -14q-6 -127 -6 -299v-377q0 -25 14 -24q6 0 33 16q121 82 240 82t187 -73t67 -185v-352q0 -106 13 -134t69 -34l32 -4q13 -8 13 -36t-15 -36 q-97 6 -249 6t-220 -6q-14 8 -14 36t12 36l37 6q37 6 46 28t10 107v354q0 59 -36 98t-112 39t-111 -49q-16 -18 -16 -76v-366q0 -84 9 -107t46 -28l37 -6q12 -8 12 -36t-14 -36q-94 6 -228 6t-239 -6q-14 8 -14 36z" />
<glyph unicode="i" horiz-adv-x="585" d="M45 30q0 28 12 36l39 4q51 4 64 31q12 28 12 137v309q0 67 -6 91t-33 40l-29 18q-10 8 -10 31t10 31q195 53 304 119q25 0 36 -19q-6 -92 -6 -244v-376q0 -109 12 -137t64 -31l39 -4q12 -8 12 -36t-14 -36q-109 6 -250 6t-242 -6q-14 8 -14 36zM158 1160q0 64 45 107 q45 42 108 42t103 -42t41 -108q0 -65 -45 -105t-110 -40q-66 0 -104 41t-38 105z" />
<glyph unicode="j" horiz-adv-x="575" d="M-45 -520q-4 10 -4 19q0 10 6 18q63 33 100 73q117 117 117 476v481q0 67 -6 91t-33 40l-29 18q-10 8 -10 31t10 31q188 51 304 119q25 0 36 -19q-6 -92 -6 -244v-505q0 -221 -44 -334t-133 -188t-277 -138q-23 8 -31 31zM160 1160q0 64 45 107q45 42 108 42t103 -42 t41 -108q0 -65 -45 -105t-110 -40q-66 0 -104 41t-38 105z" />
<glyph unicode="k" horiz-adv-x="1089" d="M23 30q0 28 12 36l39 4q54 6 68 34t14 134v901q0 69 -6 91t-35 38l-35 20q-10 10 -10 30t10 32q109 27 313 114q23 0 35 -14q-6 -127 -6 -299v-643q0 -16 6 -22t23 -7q70 0 118 58l86 100q49 59 50 82q0 16 -39 20l-52 9q-14 14 -12 40t16 31h50q199 0 387 29 q14 -8 16 -34t-8 -38l-66 -14q-61 -12 -138 -72t-136 -119q-12 -13 -12 -30t123 -204q124 -187 158 -218t122 -47l31 -6q10 -8 10 -28q0 -5 -1 -10q-3 -28 -17 -34q-96 6 -260 6t-250 -6q-14 8 -18 33q-3 25 9 39l27 6q33 6 33 18t-35 64l-145 221q-20 31 -52 31 q-25 0 -24 -50v-118q0 -106 13 -134t67 -34l33 -4q12 -8 12 -36t-15 -36q-98 6 -243 6t-252 -6q-14 8 -14 36z" />
<glyph unicode="l" horiz-adv-x="569" d="M29 30q0 28 12 36l39 4q52 4 64 32t12 136v901q0 69 -6 91t-35 38l-35 20q-10 10 -10 30t10 32q113 27 313 114q23 0 35 -14q-6 -127 -6 -299v-913q0 -106 13 -134t67 -34l35 -4q12 -8 12 -36t-14 -36q-99 6 -241 6t-251 -6q-14 8 -14 36z" />
<glyph unicode="m" horiz-adv-x="1650" d="M52 34q0 24 11 32l33 4q51 6 64 33q12 29 12 135v309q0 67 -6 91t-33 40l-29 18q-10 8 -10 31t10 31q193 53 304 119q25 0 36 -19l-6 -92q0 -16 8 -16t41 16q139 82 245 82t175 -78q31 -37 43 -37q12 -1 35 13t31 18t36 20l42 24q80 40 161 40q117 0 183 -74t65 -184 v-352q1 -106 13 -134t63 -34l33 -4q12 -8 12 -36t-14 -36q-94 6 -238 6t-225 -6q-14 8 -14 36t12 36l33 4q39 4 49 28t10 109v348q0 61 -35 102t-102 41q-129 0 -129 -112v-379q0 -84 10 -109t45 -28l33 -4q12 -8 12 -36t-14 -36q-94 6 -226 6t-213 -6q-14 8 -14 36t12 36 l33 4q35 4 45 28t11 109v348q0 63 -35 103t-108 40t-107 -49q-16 -18 -17 -76v-366q0 -84 10 -109t50 -28l32 -4q12 -8 12 -36t-14 -36q-94 6 -231 6t-229 -6q-16 9 -16 40z" />
<glyph unicode="n" horiz-adv-x="1126" d="M45 30q0 28 12 36l33 4q55 6 69 33q13 29 13 135v309q0 67 -6 91t-33 40l-29 18q-10 8 -10 31t10 31q201 55 304 119q25 0 36 -19l-6 -92q0 -16 8 -16t41 16q139 82 249 82t176 -74t67 -184v-352q0 -106 13 -134t69 -34l33 -4q12 -8 12 -36t-14 -36q-96 6 -238 6t-231 -6 q-14 8 -15 36q0 28 13 36l36 6q37 6 46 28t10 107v346q0 65 -35 105t-112 40t-111 -49q-16 -18 -17 -76v-366q0 -84 10 -109t50 -28l32 -4q12 -8 12 -36t-14 -36q-94 6 -228 6t-241 -6q-14 8 -14 36z" />
<glyph unicode="o" horiz-adv-x="1056" d="M64 396v6q0 202 138 323q140 123 333 123t325 -115t133 -325q0 -210 -134 -323q-134 -114 -333 -114q-200 0 -330 110q-130 109 -132 315zM358 435q0 -163 50 -266t137 -103q153 0 153 298v19q-2 159 -47 265t-123 106t-124 -78t-46 -241z" />
<glyph unicode="p" horiz-adv-x="1112" d="M29 -492q0 28 12 35l41 4q52 3 64 31t12 137v832q0 67 -6 91t-33 40l-29 18q-10 8 -10 31t10 31q66 18 160 59t135 70h7q25 0 36 -25q-4 -24 -4 -58t16 -38q164 82 260 82q160 0 254 -111q95 -112 95 -283q0 -213 -139 -348t-360 -135h-3q-63 0 -92 6q-31 -6 -31 -59 v-203q0 -106 12 -134t64 -32l69 -6q13 -8 13 -36t-15 -35q-153 6 -283 6t-241 -6q-14 8 -14 36zM424 231q0 -72 47 -118q43 -47 98 -47q92 0 145 89q52 89 52 236t-65 231t-169 85q-64 0 -86 -28t-22 -120v-328z" />
<glyph unicode="q" horiz-adv-x="1081" d="M63 378q0 211 145 340q146 130 372 130q110 0 178 -16q64 -15 90 -15h3q25 0 62 43q6 1 12 1q34 0 40 -21q-11 -85 -11 -265v-860q0 -106 12 -134t64 -32l70 -6q12 -8 12 -36t-14 -35q-144 6 -280 6t-253 -6q-14 8 -14 36t12 35l45 4q53 4 67 32q13 28 13 136v267 q0 39 -18 38q-106 -49 -203 -49q-184 0 -294 117t-110 290zM348 434q0 -150 80 -246q80 -94 184 -94q39 0 62 15q14 10 14 51v366q0 228 -139 228q-84 0 -142 -85q-59 -85 -59 -235z" />
<glyph unicode="r" horiz-adv-x="759" d="M45 30q0 28 12 36l39 4q51 4 64 31q12 28 12 137v305q0 67 -6 91t-33 40l-29 18q-10 8 -10 31t10 31q193 55 299 123q25 0 37 -19q-8 -82 -8 -88q0 -20 21 -25q10 7 72 55t117 48q56 0 90 -33t34 -93t-38 -94t-86 -34t-87 37q-49 41 -78 41q-39 0 -39 -123v-311 q0 -106 12 -134t64 -32l66 -6q12 -8 12 -36t-14 -36q-146 6 -282 6t-237 -6q-14 8 -14 36z" />
<glyph unicode="s" horiz-adv-x="733" d="M49 266q8 14 35 16t35 -12q25 -76 81 -140t128 -64q46 0 76 28t30 78q0 86 -135 154q-211 104 -211 258q0 128 92 196t234 68q72 0 135 -14t84 -29q31 -68 31 -205q-6 -16 -35 -18t-37 10q-55 162 -160 162q-45 0 -74 -25t-28 -65q0 -68 131 -132q225 -109 225 -286 q-2 -131 -100 -203t-260 -72t-244 64q-34 62 -34 190q0 20 1 41z" />
<glyph unicode="t" horiz-adv-x="661" d="M35 738q-1 6 -1 11q0 15 9 23q68 25 170 92q80 57 152 160q7 4 21 4h10q22 -2 30 -14v-154q0 -29 5 -35t34 -6h182q17 -12 17 -53t-27 -57h-184q-21 1 -25 -7t-4 -40v-308q0 -152 34 -196q34 -45 109 -45q39 0 86 30q30 -9 30 -41q0 -6 -1 -12q-47 -49 -126 -84t-169 -35 q-229 0 -229 234v457q0 34 -6 40t-33 7h-64q-16 5 -20 29z" />
<glyph unicode="u" horiz-adv-x="1114" d="M78 795q170 6 229 23q58 18 77 24t22 6q20 0 24 -25q-6 -78 -6 -180v-338q0 -90 28 -137t100 -47t124 39q23 16 22 61v387q0 62 -16 82t-72 29l-28 4q-12 10 -11 38q2 28 21 34q216 10 333 47q22 6 25 6q16 0 21 -25q-6 -110 -6 -180v-373q0 -98 10 -136t44 -38t83 17 q13 -2 13 -36v-5q-1 -39 -19 -47q-113 -4 -189 -23q-75 -18 -111 -28t-59 -15l-20 -8q-20 2 -25 24q6 37 6 65t-22 30q-53 -34 -82 -50q-87 -47 -205 -48h-3q-228 0 -228 261v349q0 78 -12 100t-50 33l-26 8q-9 13 -9 34q0 27 17 38z" />
<glyph unicode="v" horiz-adv-x="935" d="M-24 792q1 28 20 33q113 -6 254 -6l227 6q12 -7 13 -35t-9 -36l-32 -9q-35 -8 -35 -22q0 -49 147 -387q150 341 152 387q0 12 -49 25l-29 6q-14 8 -13 36t15 35q99 -6 145 -6t181 6q16 -9 16 -35t-12 -36l-35 -6q-43 -8 -65 -28t-84 -145q-62 -124 -263 -589 q-18 -14 -46 -14t-50 14q-132 316 -224 510t-111 216t-56 31l-43 11q-14 10 -14 38z" />
<glyph unicode="w" horiz-adv-x="1396" d="M-8 825q126 -6 235 -6h414q166 0 363 6q16 -1 17 -33t-11 -38l-31 -6q-76 -16 -76 -32t35 -110q35 -96 121 -282q35 86 115 313q18 55 18 80q0 16 -51 28l-35 9q-10 10 -8 38t16 33q102 -6 180 -6t146 6q14 -5 16 -31v-7q0 -21 -10 -33l-29 -6q-49 -10 -68 -30t-100 -200 t-221 -532q-14 -14 -47 -14t-47 14q-72 184 -211 481q-23 -45 -223 -481q-14 -14 -47 -14t-47 14q-195 461 -300 680q-20 41 -36 55t-47 22l-37 11q-11 11 -11 34q0 29 17 37zM383 713q0 -19 48 -141t116 -248q91 178 103 224t12 77t-24 67t-58 44q-34 7 -115 7 q-82 0 -82 -30z" />
<glyph unicode="x" horiz-adv-x="937" d="M-18 792q2 30 16 33q121 -6 239 -6t228 6q18 -7 19 -35t-15 -36l-25 -6q-31 -4 -30 -15q0 -26 102 -168q50 71 76 109t26 55q0 8 -32 19l-23 6q-14 8 -11 37t17 34q87 -6 177 -6t165 6q14 -3 16 -33t-12 -38l-28 -4q-82 -12 -127 -40t-117 -120t-72 -106t43 -76l140 -207 q51 -76 89 -103t93 -30l22 -2q12 -10 12 -38t-18 -34q-134 6 -256 6t-264 -6q-14 6 -16 34t10 38l45 8q35 8 35 22t-44 85t-69 106q-37 -53 -73 -115t-36 -78q0 -14 38 -22l32 -6q12 -10 10 -38t-14 -34q-88 6 -168 6t-176 -6q-14 8 -16 34t12 38l51 8q70 12 95 38t105 130 t83 133q0 6 -66 108l-110 170q-47 72 -125 90l-43 11q-10 7 -10 30v8z" />
<glyph unicode="y" horiz-adv-x="960" d="M-6 825q111 -6 249 -6t251 6q14 -5 16 -33t-10 -38l-41 -9q-41 -8 -51 -16t-10 -23t61 -182q90 -229 92 -233q16 29 63 135l37 84q76 174 76 207q0 20 -45 28l-41 9q-14 10 -12 39t18 32q67 -6 173 -6t186 6q14 -7 16 -35v-7q0 -22 -12 -29l-39 -4q-66 -6 -94 -45 q-49 -66 -121 -216l-420 -868q-61 -131 -176 -135h-4q-127 0 -127 123q0 47 31 77q31 29 82 29h3h50q68 0 100 43q16 22 52 96t36 113t-39 139l-197 496q-33 80 -54 109t-68 37l-37 6q-11 9 -11 34q0 31 17 37z" />
<glyph unicode="z" horiz-adv-x="849" d="M33 588q27 178 63 270q8 8 22 8t21 -8q3 -27 21 -33t94 -6h369q133 0 170 6q16 -8 12 -26q-18 -25 -146 -240l-219 -373q-37 -63 -37 -84q0 -12 82 -12h50q150 0 192 70q23 31 61 110q12 12 39 8t35 -18q-4 -57 -31 -146t-47 -120q-251 6 -327 6h-199q-150 0 -199 -6 q-23 8 -14 33q94 141 180 295l191 337q22 41 22 59q0 11 -57 11h-64q-113 0 -145 -39q-39 -39 -66 -119q-14 -12 -40 -6t-33 23z" />
<glyph unicode="{" horiz-adv-x="696" d="M115 550q0 16 10 25q130 8 160 63q20 40 20 100t-16 204q-17 144 -17 212q-1 194 150 243q74 24 196 24q10 -3 12 -25t-7 -32q-172 -31 -172 -178q0 -70 19 -209t19 -211q0 -174 -153 -213v-8q153 -39 153 -213q0 -72 -19 -211t-19 -208q1 -69 35 -115t137 -64 q8 -10 7 -32t-12 -26q-153 0 -241 43q-105 53 -105 226q0 68 17 211q16 143 16 206q0 108 -80 140q-39 16 -100 20q-10 12 -10 28z" />
<glyph unicode="|" horiz-adv-x="507" d="M164 -512v2048h180v-2048h-180z" />
<glyph unicode="}" horiz-adv-x="696" d="M67 -298q-1 22 7 32q102 18 137 64t35 115t-20 208q-19 139 -19 211q0 174 153 213v8q-154 39 -153 213q0 72 19 211t20 209q0 147 -172 178q-8 10 -7 32t11 25q204 0 274 -68t72 -200q0 -68 -16 -211q-16 -142 -16 -192t2 -67q4 -17 18 -45q27 -53 159 -63q11 -8 11 -24 t-11 -29q-122 -8 -151 -57t-29 -107q1 -59 17 -202t16 -211q0 -164 -89 -216t-257 -53q-10 4 -11 26z" />
<glyph unicode="~" d="M115 227q4 39 36 108t66 114q33 39 73 50t111 11h261q70 0 106 34t68 118q26 16 62 7t52 -38q-35 -131 -112 -215q-45 -53 -156 -54h-283q-61 0 -101 -40t-73 -121q-23 -14 -63 -7t-47 33z" />
<glyph unicode="&#xa1;" horiz-adv-x="520" d="M94 641q0 72 50 119t120 47t116 -47t46 -117t-47 -121t-118 -51t-119 49t-48 121zM96 -457q0 10 33 240l86 575q18 12 45 12t45 -12l86 -575q33 -229 33 -240q0 -49 -40 -69t-124 -19q-84 -1 -124 19t-40 69z" />
<glyph unicode="&#xa2;" d="M115 621q1 221 151 337t365 121l20 174q15 12 49 12t50 -12l-21 -178q86 -2 154 -26q43 -33 43 -93t-18 -90t-38 -30t-32 12q-79 94 -115 121l-2 2h-4l-74 -611q10 -4 33 -4q133 0 223 119q23 4 40 -7t15 -32q-102 -199 -327 -215l-27 -213q-14 -12 -47 -12t-51 12 l26 213q-194 12 -304 123t-109 277zM395 678q0 -223 154 -293l72 606q-101 -4 -163 -94t-63 -219z" />
<glyph unicode="&#xa3;" d="M-25 8q0 53 103 133q150 121 149 439q0 16 -3 18t-13 3t-18 3h-177q-12 12 -10 43t21 49h163q23 0 28 3t3 19t-2 73q-1 231 145 375t359 145q88 0 133 -31q25 -23 25 -67q0 -45 -27 -81q-26 -36 -50 -36t-46 20q-98 80 -160 80q-46 0 -77 -106q-17 -62 -17 -152t7 -160 t14 -76t34 -6h262q12 -16 8 -45t-18 -47h-250q-29 0 -37 -5t-8 -24q0 -125 -55 -197t-162 -122l2 -4q74 10 141 -2q68 -8 193 -72t187 -65q62 1 64 25q4 24 -20 81t-4 85t58 28t70 -31t32 -96q0 -95 -100 -191t-213 -96t-261 93t-223 93q-35 0 -53 -24t-22 -53 q-4 -19 -58 -37t-78 -19q-39 0 -39 37z" />
<glyph unicode="&#xa4;" d="M80 299l94 86q-84 98 -84 256t84 256l-94 86q8 49 48 84t85 39l76 -100q100 73 243 73t244 -73l76 100q45 -4 85 -39t48 -84l-94 -86q84 -98 84 -256t-84 -256l94 -86q-8 -49 -48 -84t-85 -39l-76 100q-100 -74 -244 -74t-243 74l-76 -100q-45 4 -85 39t-48 84zM278 641 q0 -123 76 -202q74 -79 178 -79t180 80q75 80 74 201q0 121 -74 201q-76 80 -180 80t-179 -79t-75 -202z" />
<glyph unicode="&#xa5;" d="M-30 1256q2 24 16 32q140 -6 298 -6t234 6q16 -6 16 -30t-14 -37l-55 -15q-41 -10 -41 -32q0 -39 186 -369q4 6 23 40q18 34 46 82t74 138t46 106q0 23 -60 39l-37 11q-18 11 -16 35t25 32q123 -6 197 -6t179 6q15 -6 15 -32t-12 -35l-46 -13q-48 -14 -76 -41t-83 -114 l-193 -308h281q16 -14 16 -46t-16 -46h-307v-155h307q16 -14 16 -45t-16 -47h-307v-168q0 -111 12 -139t63 -31l68 -7q12 -7 12 -33t-14 -34q-154 6 -279 6t-284 -6q-14 8 -15 34q0 26 13 33l73 7q51 4 64 31q12 28 12 139v168h-307q-14 16 -14 47t14 45h307v155h-307 q-14 14 -14 46t14 46h268l-196 349q-23 37 -36 56q-36 52 -104 64l-36 7q-12 11 -10 35z" />
<glyph unicode="&#xa6;" horiz-adv-x="507" d="M164 -358v716h180v-716h-180zM164 666v716h180v-716h-180z" />
<glyph unicode="&#xa7;" horiz-adv-x="1075" d="M82 799q0 223 175 404t398 181q113 0 159 -38t46 -80q0 -43 -33 -66q-74 -52 -164 15q-89 67 -125 67t-64 -30t-28 -78t58 -119q58 -70 239 -203q125 -92 187 -206t63 -277q0 -223 -179 -423t-431 -200q-86 0 -134 32t-48 80q1 48 27 74t71 27q45 0 118 -50t121 -50 q101 1 101 113q0 60 -82 156t-210 198t-196 215q-69 113 -69 258zM219 937q0 -50 6 -81q19 -100 101 -190t204 -192t178 -213q56 -112 42 -249l4 -4q102 109 102 238t-62 228t-216 220t-208 212t-46 229q-43 -35 -74 -91t-31 -107z" />
<glyph unicode="&#xa8;" horiz-adv-x="778" d="M78 1118q0 57 37 94t91 37t90 -36t36 -90t-35 -90t-90 -36t-91 32t-38 89zM446 1118q0 57 37 94t91 37t90 -36t36 -90t-35 -90t-90 -36t-91 32t-38 89z" />
<glyph unicode="&#xa9;" horiz-adv-x="1597" d="M82 676q0 293 210 501q210 207 507 207t507 -208t210 -500q0 -293 -210 -501t-507 -208t-507 208t-210 501zM221 678q0 -256 170 -435t408 -179q237 0 407 178q170 180 170 436t-170 433t-408 177t-407 -177q-170 -177 -170 -433zM436 674q0 168 116 278t312 109 q96 1 165 -17t73 -18l18 -211q-8 -10 -27 -12t-28 6q-53 180 -193 180q-84 0 -150 -74q-66 -75 -67 -229q0 -154 68 -232t162 -77q119 0 211 170q8 10 26 8t27 -12q-10 -111 -53 -183q-85 -55 -220 -55q-339 0 -420 251q-19 58 -20 118z" />
<glyph unicode="&#xaa;" horiz-adv-x="765" d="M66 647q0 109 112 144q102 35 207 61q41 12 45 39v20q0 123 -90 123q-59 0 -70 -65q-6 -43 -32 -64q-52 -31 -112 -31t-60 35q0 49 53 95t129 74t176 28t156 -46t51 -153l-10 -219q-6 -102 59 -102q23 0 55 14q31 -5 19 -43q-25 -27 -75 -46q-49 -19 -113 -19t-94 29 t-40 29t-47 -24q-66 -35 -125 -34q-98 0 -146 48t-48 107zM270 668q0 -31 24 -56t58 -24q63 0 68 57l6 100q4 39 -16 39q-33 0 -58 -10q-82 -34 -82 -106z" />
<glyph unicode="&#xab;" horiz-adv-x="884" d="M90 391q-31 37 0 74q150 162 311 352q35 -8 45 -31l-155 -327q-14 -29 0 -60l155 -333q-16 -33 -45 -31q-176 209 -311 356zM455 391q-31 37 0 74q150 162 311 352q35 -8 45 -31l-156 -327q-14 -29 0 -60l156 -333q-16 -33 -45 -31q-176 207 -311 356z" />
<glyph unicode="&#xac;" d="M123 512v147h821v-522h-180v375h-641z" />
<glyph unicode="&#xad;" horiz-adv-x="671" d="M61 398q0 48 31 87l490 45q28 -33 28 -83t-26 -82l-492 -46q-31 31 -31 79z" />
<glyph unicode="&#xae;" horiz-adv-x="708" d="M61 1098q0 118 86 202t207 84t207 -84t86 -202t-86 -203q-86 -84 -207 -84t-207 84t-86 203zM131 1098q0 -98 66 -167q65 -69 157 -69t158 69t66 168t-66 167t-158 69t-158 -69t-65 -168zM212 974q-1 9 3 11q28 6 32 14q5 8 5 35v129q0 43 -27 45h-10q-4 6 -3 14t7 11 q102 4 135 4q123 0 123 -76q0 -45 -45 -63q-6 -2 0 -17q36 -72 58 -87t26 -15t4 -7t-4 -9q-12 -2 -35 -2q-57 0 -90 47l-35 57q-6 12 -18 12t-12 -10v-33q0 -27 3 -34t33 -15q2 -2 2 -11t-2 -11l-73 2l-70 -2q-6 2 -7 11zM326 1120q0 -12 3 -14t21 -2q41 0 41 51t-39 51 q-18 0 -22 -3t-4 -15v-68z" />
<glyph unicode="&#xaf;" horiz-adv-x="778" d="M111 1099q0 48 18 72h518q20 -25 20 -73t-20 -72h-518q-18 25 -18 73z" />
<glyph unicode="&#xb0;" horiz-adv-x="765" d="M82 1018q0 131 87 212t214 81t214 -81t87 -212t-87 -210t-214 -79t-214 79t-87 210zM223 1020q0 -88 45 -144t118 -56t115 54q42 56 42 145t-45 145t-115 56t-115 -56t-45 -144z" />
<glyph unicode="&#xb1;" d="M123 0v147h821v-147h-821zM123 506v147h321v285h181v-285h319v-147h-319v-301h-181v301h-321z" />
<glyph unicode="&#xb2;" horiz-adv-x="819" d="M86 690q102 80 207 187q154 162 153 323q0 63 -32 103q-33 39 -88 38q-98 0 -166 -120q-16 -12 -37 -1q-20 11 -21 35q106 205 336 205q114 0 186 -63q73 -63 72 -166q0 -147 -200 -297l-64 -47l-51 -43q-14 -14 -9 -24t25 -11h127q78 0 113 12t59 58q29 10 47 -9 q-25 -133 -79 -219q-111 4 -234 4h-197q-88 0 -133 -4q-23 12 -14 39z" />
<glyph unicode="&#xb3;" horiz-adv-x="819" d="M82 673q0 95 88 95q48 0 87 -62q7 -11 9 -14q23 -35 68 -36q45 0 95 56t50 147q1 185 -143 185q-70 0 -127 -51q-29 6 -38 32t5 42q180 64 232 132q24 34 24 72q0 39 -24 61t-68 22q-84 0 -152 -103q-18 -8 -35 4t-16 31q43 82 122 128t173 46t156 -43t63 -100 q0 -57 -33 -94t-124 -74q-19 -8 16 -19q92 -10 154 -58t61 -142q0 -152 -170 -258q-151 -97 -317 -97q-59 0 -108 28q-48 28 -48 70z" />
<glyph unicode="&#xb4;" horiz-adv-x="778" d="M197 969l186 372q29 61 63 61t80 -32q56 -43 56 -74t-45 -75l-289 -285q-45 -6 -51 33z" />
<glyph unicode="&#xb5;" horiz-adv-x="1097" d="M150 -446v1247q0 18 26 18h227q18 -4 21 -18q-6 -37 -6 -158v-389q0 -141 93 -141t153 129q25 53 24 100v446q0 29 25 31h227q18 -4 21 -18q-7 -60 -7 -146v-438q0 -59 8 -82t40 -23t73 42q11 -8 21 -26t4 -32q-80 -123 -250 -123q-139 0 -154 156q-2 14 -4 19t-8 4 q-74 -180 -270 -181q-70 0 -133 43q-25 0 -25 -45v-39q0 -111 96 -279q33 -56 33 -73q0 -45 -66 -87t-122 -42q-47 0 -47 105z" />
<glyph unicode="&#xb6;" horiz-adv-x="1003" d="M82 694q0 240 197 353q158 90 415 90q178 0 244 -13q14 -8 14 -30t-12 -33l-70 -12q-80 -13 -94 -31t-14 -100v-873q0 -315 -127 -412q-57 -43 -157 -43t-165 45q-66 45 -65 136q0 47 20 82t47 43q57 2 97 -20t47 -50q-29 -29 -29 -71q0 -41 24 -63t60 -22q139 0 139 295 v240q0 43 -11 58t-42 16q-225 0 -372 115q-146 116 -146 300z" />
<glyph unicode="&#xb7;" horiz-adv-x="532" d="M100 424q0 72 48 121t119 49t118 -51t47 -121t-46 -117t-116 -47t-120 47t-50 119z" />
<glyph unicode="&#xb8;" horiz-adv-x="778" d="M201 -424q0 29 18 48q18 20 48 20t74 -38q43 -38 63 -38t37 14t18 37q0 82 -156 148l-6 16l147 217h109l-78 -106q-12 -16 -8 -24t27 -20q125 -68 124 -174q0 -82 -78 -136t-182 -54q-158 0 -157 90z" />
<glyph unicode="&#xb9;" horiz-adv-x="819" d="M166 1328q0 20 12 30q203 27 342 102q20 0 25 -16q-6 -104 -6 -180v-410q0 -64 2 -84q5 -48 59 -55l62 -8q10 -9 8 -29t-13 -27q-153 4 -235 4t-234 -4q-10 7 -12 27t8 29l62 8q45 5 53 29t8 110v328q0 59 -11 82t-54 28l-64 8q-12 8 -12 28z" />
<glyph unicode="&#xba;" horiz-adv-x="827" d="M70 790q0 144 101 230t251 86t244 -83t94 -227t-98 -224t-250 -80t-247 76t-95 222zM303 818q0 -112 32 -182t85 -71q106 -1 106 213q0 102 -30 178t-80 76q-51 0 -82 -51t-31 -163z" />
<glyph unicode="&#xbb;" horiz-adv-x="884" d="M74 66l155 333q14 31 0 60l-155 327q10 23 45 31q162 -190 311 -352q31 -37 0 -74q-135 -147 -311 -356q-29 -2 -45 31zM438 66l156 333q14 31 0 60l-156 327q10 23 45 31q162 -190 312 -352q31 -37 0 -74q-135 -147 -312 -356q-29 -2 -45 31z" />
<glyph unicode="&#xbc;" horiz-adv-x="1720" d="M146 1180q0 20 12 28q203 27 342 103q20 0 24 -17q-6 -104 -6 -180v-409q0 -63 2 -83q5 -48 60 -57l61 -8q10 -9 8 -29t-12 -26q-152 4 -235 4t-234 -4q-10 6 -12 26t8 29l61 8q45 6 54 30q8 24 8 110v327q1 59 -11 82t-55 29l-63 8q-12 9 -12 29zM432 -33l758 1372 q26 4 58 -10t38 -39l-758 -1372q-30 -6 -58 8t-38 41zM887 268l442 580q20 25 41 24h60q22 0 18 -22q-2 -10 -12 -23l-402 -505q-2 -20 31 -23h149q20 0 26 6q5 6 5 29v153q0 35 37 45q123 37 157 37t34 -20v-215q0 -23 5 -29t25 -6h90q17 -6 17 -38t-17 -40h-90 q-23 0 -27 -5t-3 -32v-28q0 -62 11 -80t62 -23l27 -2q10 -8 10 -27t-12 -28q-160 4 -244 4t-203 -4q-12 6 -13 26t9 29l41 2q61 3 73 19t11 84v28q0 27 -4 32t-27 5h-313q-23 12 -14 47z" />
<glyph unicode="&#xbd;" horiz-adv-x="1720" d="M123 1180q0 20 12 28q203 27 342 103q20 0 25 -17q-6 -104 -6 -180v-409q0 -63 2 -83q5 -48 59 -57l61 -8q10 -9 8 -29t-12 -26q-152 4 -234 4t-235 -4q-10 6 -12 26t8 29l62 8q45 6 53 30t8 110v327q0 59 -11 82t-54 29l-64 8q-12 9 -12 29zM408 -33l757 1372 q27 4 59 -10t38 -39l-758 -1372q-29 -6 -58 8t-38 41zM993 35q102 80 207 186q154 162 154 324q0 63 -33 102t-88 39q-98 0 -166 -121q-14 -12 -36 -1t-21 36q104 205 334 205q114 1 187 -63t73 -167q0 -147 -201 -296l-64 -48l-51 -43q-14 -14 -9 -24t26 -10h127 q78 0 112 12t60 57q29 10 47 -8q-25 -133 -80 -219q-111 4 -234 4h-196q-88 0 -133 -4q-23 12 -15 39z" />
<glyph unicode="&#xbe;" horiz-adv-x="1720" d="M88 524q0 42 22 68t56 26t57 -17t34 -36t15 -22q23 -35 68 -36t95 55t50 148q0 186 -143 185q-70 0 -127 -51q-29 6 -38 32t5 42q182 64 232 132q24 34 24 72t-24 60q-25 23 -68 22q-84 0 -151 -102q-18 -8 -36 4q-17 12 -16 31q43 82 122 128t173 46t156 -43 q62 -42 63 -100q-1 -58 -33 -95t-124 -74q-23 -10 16 -18q92 -10 154 -58t61 -143q0 -152 -170 -258q-151 -96 -317 -96q-59 0 -108 28q-48 28 -48 70zM483 -33l758 1372q27 4 59 -10t37 -39l-757 -1372q-29 -6 -58 8t-39 41zM958 268l443 580q20 25 41 24h59q23 0 19 -22 q-2 -10 -13 -23l-401 -505q-2 -20 31 -23h149q20 0 26 6q5 6 5 29v153q0 35 37 45q123 37 157 37t33 -20v-215q0 -23 5 -29t26 -6h90q16 -6 16 -38t-16 -40h-90q-23 0 -27 -5t-4 -32v-28q0 -62 11 -80t63 -23l27 -2q10 -8 10 -27t-13 -28q-160 4 -244 4t-202 -4 q-12 6 -13 26t9 29l41 2q61 3 73 19t11 84v28q0 27 -4 32t-27 5h-313q-23 12 -15 47z" />
<glyph unicode="&#xbf;" horiz-adv-x="679" d="M82 -130q0 163 129 222l135 62q84 37 84 88t-20 110q8 14 32 18t35 -8q31 -44 61 -114t30 -138t-42 -109q-41 -40 -143 -83l-96 -41q-53 -23 -76 -38t-23 -36q0 -47 69 -69t228 -21q37 0 75 -35t38 -92t-40 -94t-103 -37q-143 0 -258 126t-115 289zM246 637q0 72 48 121 t119 49t117 -51t48 -121q0 -70 -46 -117t-116 -47t-120 47t-50 119z" />
<glyph unicode="&#xc0;" horiz-adv-x="1277" d="M-60 28q-1 26 11 38l55 6q43 6 72 26t53 76q51 123 129 328l186 499q27 74 43 113q39 99 33 148q58 13 91 41q35 29 51 45l36 36q37 0 48 -41q25 -86 92 -280l278 -803q37 -102 61 -138t76 -44l78 -12q10 -8 10 -35t-12 -37q-147 6 -299 6t-293 -6q-16 10 -18 35t14 37 l66 10q55 10 55 35q0 18 -39 139l-55 176q-8 25 -26 31t-72 6h-244q-37 0 -48 -6t-20 -35l-80 -238q-14 -47 -14 -73q0 -20 84 -35l61 -10q11 -12 11 -39t-15 -33q-18 2 -231 6l-211 -6q-16 8 -17 34zM338 1716q33 63 70 64q22 0 67 -31l332 -242q12 -31 -23 -61l-401 131 q-108 30 -45 139zM414 582q8 -10 47 -11h192q37 -1 44 9t-3 51l-53 166q-61 190 -84 241q-4 -12 -21 -60q-16 -48 -34 -99t-33 -93l-51 -153q-12 -41 -4 -51z" />
<glyph unicode="&#xc1;" horiz-adv-x="1277" d="M-60 28q-1 26 11 38l55 6q43 6 72 26t53 76q51 123 129 328l186 499q27 74 43 113q39 99 33 148q58 13 91 41q35 29 51 45l36 36q37 0 48 -41q25 -86 92 -280l278 -803q37 -102 61 -138t76 -44l78 -12q10 -8 10 -35t-12 -37q-147 6 -299 6t-293 -6q-16 10 -18 35t14 37 l66 10q55 10 55 35q0 18 -39 139l-55 176q-8 25 -26 31t-72 6h-244q-37 0 -48 -6t-20 -35l-80 -238q-14 -47 -14 -73q0 -20 84 -35l61 -10q11 -12 11 -39t-15 -33q-18 2 -231 6l-211 -6q-16 8 -17 34zM414 582q8 -10 47 -11h192q37 -1 44 9t-3 51l-53 166q-61 190 -84 241 q-4 -12 -21 -60q-16 -48 -34 -99t-33 -93l-51 -153q-12 -41 -4 -51zM510 1497l332 248q47 35 67 35q37 0 70 -64q63 -109 -45 -139l-402 -131q-32 12 -22 51z" />
<glyph unicode="&#xc2;" horiz-adv-x="1277" d="M-60 28q-1 26 11 38l55 6q43 6 72 26t53 76q51 123 129 328l186 499q27 74 43 113q39 99 33 148q58 13 91 41q35 29 51 45l36 36q37 0 48 -41q25 -86 92 -280l278 -803q37 -102 61 -138t76 -44l78 -12q10 -8 10 -35t-12 -37q-147 6 -299 6t-293 -6q-16 10 -18 35t14 37 l66 10q55 10 55 35q0 18 -39 139l-55 176q-8 25 -26 31t-72 6h-244q-37 0 -48 -6t-20 -35l-80 -238q-14 -47 -14 -73q0 -20 84 -35l61 -10q11 -12 11 -39t-15 -33q-18 2 -231 6l-211 -6q-16 8 -17 34zM350 1495l260 244q47 47 97 0l260 -244q6 -16 -4 -32q-11 -15 -23 -17 l-248 102q-35 20 -67 2l-246 -104q-14 0 -25 16q-10 16 -4 33zM414 582q8 -10 47 -11h192q37 -1 44 9t-3 51l-53 166q-61 190 -84 241q-4 -12 -21 -60q-16 -48 -34 -99t-33 -93l-51 -153q-12 -41 -4 -51z" />
<glyph unicode="&#xc3;" horiz-adv-x="1277" d="M-60 28q-1 26 11 38l55 6q43 6 72 26t53 76q51 123 129 328l186 499q27 74 43 113q39 99 33 148q58 13 91 41q35 29 51 45l36 36q37 0 48 -41q25 -86 92 -280l278 -803q37 -102 61 -138t76 -44l78 -12q10 -8 10 -35t-12 -37q-147 6 -299 6t-293 -6q-16 10 -18 35t14 37 l66 10q55 10 55 35q0 18 -39 139l-55 176q-8 25 -26 31t-72 6h-244q-37 0 -48 -6t-20 -35l-80 -238q-14 -47 -14 -73q0 -20 84 -35l61 -10q11 -12 11 -39t-15 -33q-18 2 -231 6l-211 -6q-16 8 -17 34zM365 1421q31 121 84 183t135 63h121q55 1 89 19t56 77q53 12 68 -10 q-23 -105 -68 -169t-133 -64h-101q-72 0 -110 -24t-74 -87q-14 -6 -38 -3t-29 15zM414 582q8 -10 47 -11h192q37 -1 44 9t-3 51l-53 166q-61 190 -84 241q-4 -12 -21 -60q-16 -48 -34 -99t-33 -93l-51 -153q-12 -41 -4 -51z" />
<glyph unicode="&#xc4;" horiz-adv-x="1277" d="M-60 28q-1 26 11 38l55 6q43 6 72 26t53 76q51 123 129 328l186 499q27 74 43 113q39 99 33 148q58 13 91 41q35 29 51 45l36 36q37 0 48 -41q25 -86 92 -280l278 -803q37 -102 61 -138t76 -44l78 -12q10 -8 10 -35t-12 -37q-147 6 -299 6t-293 -6q-16 10 -18 35t14 37 l66 10q55 10 55 35q0 18 -39 139l-55 176q-8 25 -26 31t-72 6h-244q-37 0 -48 -6t-20 -35l-80 -238q-14 -47 -14 -73q0 -20 84 -35l61 -10q11 -12 11 -39t-15 -33q-18 2 -231 6l-211 -6q-16 8 -17 34zM301 1577q0 57 36 94t89 37t88 -36t35 -89t-35 -89t-88 -36t-88 31 t-37 88zM414 582q8 -10 47 -11h192q37 -1 44 9t-3 51l-53 166q-61 190 -84 241q-4 -12 -21 -60q-16 -48 -34 -99t-33 -93l-51 -153q-12 -41 -4 -51zM729 1577q0 57 36 94t89 37t88 -36t35 -89t-35 -89t-88 -36t-88 31t-37 88z" />
<glyph unicode="&#xc5;" horiz-adv-x="1277" d="M-60 28q-1 26 11 38l55 6q43 6 72 26t53 76q51 123 129 328l186 499q27 74 43 113q39 99 33 148q58 13 91 41q35 29 51 45l36 36q37 0 48 -41q25 -86 92 -280l278 -803q37 -102 61 -138t76 -44l78 -12q10 -8 10 -35t-12 -37q-147 6 -299 6t-293 -6q-16 10 -18 35t14 37 l66 10q55 10 55 35q0 18 -39 139l-55 176q-8 25 -26 31t-72 6h-244q-37 0 -48 -6t-20 -35l-80 -238q-14 -47 -14 -73q0 -20 84 -35l61 -10q11 -12 11 -39t-15 -33q-18 2 -231 6l-211 -6q-16 8 -17 34zM414 582q8 -10 47 -11h192q37 -1 44 9t-3 51l-53 166q-61 190 -84 241 q-4 -12 -21 -60q-16 -48 -34 -99t-33 -93l-51 -153q-12 -41 -4 -51zM428 1612q0 82 58 142t152 60t154 -60q58 -60 58 -141t-58 -142q-59 -60 -153 -60t-153 60q-58 59 -58 141zM546 1614q0 -53 26 -89q24 -36 67 -36t68 36t24 89q0 53 -24 90q-25 37 -68 37t-68 -37 t-25 -90z" />
<glyph unicode="&#xc6;" horiz-adv-x="1722" d="M-157 30q-1 26 14 36l55 8q47 6 80 34t71 95q221 395 467 882q61 123 62 148q0 25 -43 33l-119 20q-14 10 -14 37t20 35q143 -6 355 -6h528q233 0 274 6l27 -318q-6 -16 -34 -19t-42 11q-37 119 -78 162q-63 63 -200 63h-164q-48 0 -58 -11t-10 -68v-359q0 -43 8 -52 t50 -9h141q81 0 109 19t42 93l11 52q10 12 39 12t36 -14q-6 -98 -6 -218t6 -217q-8 -14 -36 -15t-39 13l-11 52q-14 74 -43 94t-108 20h-141q-42 0 -50 -9t-8 -54v-244q0 -148 26 -186t72 -50q44 -12 137 -12t131 5t85 28t81 71t76 134q12 16 41 12t35 -22q-6 -76 -35 -180 t-51 -148q-221 6 -473 6h-266q-111 0 -342 -6q-12 10 -12 37t12 35l96 14q73 10 89 43t16 172v287q0 45 -8 56t-46 11h-215q-37 0 -51 -7t-26 -32q-226 -435 -230 -501q0 -23 51 -31l78 -12q15 -10 15 -38t-17 -34q-105 6 -219 6t-225 -6q-14 10 -16 36zM488 763q4 -5 32 -5 h178q37 0 45 12t9 66v327q0 78 -7 94h-10q-25 -31 -82 -147l-161 -319q-8 -23 -4 -28z" />
<glyph unicode="&#xc7;" horiz-adv-x="1411" d="M82 660q0 338 248 542q219 182 567 182q150 0 277 -25t145 -28q0 -162 24 -319q-7 -18 -37 -24t-40 9q-86 293 -385 293q-188 0 -330 -157q-141 -158 -141 -447t142 -457t339 -168q291 0 418 318q12 12 41 8t36 -22q-23 -229 -77 -322q-238 -68 -371 -74l-53 -75 q-8 -10 -8 -16q0 -13 26 -28q125 -68 125 -174q0 -82 -78 -136t-182 -54q-158 0 -158 90q0 29 18 48q18 20 49 20q30 0 74 -38t63 -38t37 14q17 14 17 37q0 82 -155 148l-6 16l124 186q-303 14 -489 154q-260 199 -260 537z" />
<glyph unicode="&#xc8;" horiz-adv-x="1214" d="M20 31q0 27 13 35l96 14q72 10 88 43t16 172v764q0 137 -16 170t-88 47l-51 10q-14 8 -12 36t16 36q143 -6 295 -6h434q236 0 274 6l27 -318q-6 -16 -34 -19t-42 11q-37 119 -78 162q-63 63 -200 63h-164q-48 0 -58 -11t-10 -68v-359q0 -43 8 -52t50 -9h141q82 0 110 19 t42 93l10 52q10 12 39 12t37 -14q-14 -234 0 -435q-8 -14 -37 -15t-39 13l-10 52q-14 74 -43 94t-109 20h-141q-41 0 -49 -9t-9 -54v-244q0 -148 26 -186t72 -50q44 -12 137 -12t131 5t85 28t81 71t77 134q12 16 41 12t34 -22q-6 -76 -34 -180t-52 -148q-162 6 -473 6h-266 q-123 0 -352 -6q-12 10 -13 37zM287 1716q33 63 69 64q23 0 68 -31l332 -242q12 -31 -23 -61l-401 131q-108 30 -45 139z" />
<glyph unicode="&#xc9;" horiz-adv-x="1214" d="M20 31q0 27 13 35l96 14q72 10 88 43t16 172v764q0 137 -16 170t-88 47l-51 10q-14 8 -12 36t16 36q143 -6 295 -6h434q236 0 274 6l27 -318q-6 -16 -34 -19t-42 11q-37 119 -78 162q-63 63 -200 63h-164q-48 0 -58 -11t-10 -68v-359q0 -43 8 -52t50 -9h141q82 0 110 19 t42 93l10 52q10 12 39 12t37 -14q-14 -234 0 -435q-8 -14 -37 -15t-39 13l-10 52q-14 74 -43 94t-109 20h-141q-41 0 -49 -9t-9 -54v-244q0 -148 26 -186t72 -50q44 -12 137 -12t131 5t85 28t81 71t77 134q12 16 41 12t34 -22q-6 -76 -34 -180t-52 -148q-162 6 -473 6h-266 q-123 0 -352 -6q-12 10 -13 37zM520 1497l332 248q47 35 68 35q37 0 69 -64q64 -109 -45 -139l-401 -131q-33 12 -23 51z" />
<glyph unicode="&#xca;" horiz-adv-x="1214" d="M20 31q0 27 13 35l96 14q72 10 88 43t16 172v764q0 137 -16 170t-88 47l-51 10q-14 8 -12 36t16 36q143 -6 295 -6h434q236 0 274 6l27 -318q-6 -16 -34 -19t-42 11q-37 119 -78 162q-63 63 -200 63h-164q-48 0 -58 -11t-10 -68v-359q0 -43 8 -52t50 -9h141q82 0 110 19 t42 93l10 52q10 12 39 12t37 -14q-14 -234 0 -435q-8 -14 -37 -15t-39 13l-10 52q-14 74 -43 94t-109 20h-141q-41 0 -49 -9t-9 -54v-244q0 -148 26 -186t72 -50q44 -12 137 -12t131 5t85 28t81 71t77 134q12 16 41 12t34 -22q-6 -76 -34 -180t-52 -148q-162 6 -473 6h-266 q-123 0 -352 -6q-12 10 -13 37zM322 1493l247 231q47 43 90 0l248 -231q6 -17 -3 -31t-21 -16l-236 98q-35 16 -65 2l-234 -100q-14 0 -23 15t-3 32z" />
<glyph unicode="&#xcb;" horiz-adv-x="1214" d="M20 31q0 27 13 35l96 14q72 10 88 43t16 172v764q0 137 -16 170t-88 47l-51 10q-14 8 -12 36t16 36q143 -6 295 -6h434q236 0 274 6l27 -318q-6 -16 -34 -19t-42 11q-37 119 -78 162q-63 63 -200 63h-164q-48 0 -58 -11t-10 -68v-359q0 -43 8 -52t50 -9h141q82 0 110 19 t42 93l10 52q10 12 39 12t37 -14q-14 -234 0 -435q-8 -14 -37 -15t-39 13l-10 52q-14 74 -43 94t-109 20h-141q-41 0 -49 -9t-9 -54v-244q0 -148 26 -186t72 -50q44 -12 137 -12t131 5t85 28t81 71t77 134q12 16 41 12t34 -22q-6 -76 -34 -180t-52 -148q-162 6 -473 6h-266 q-123 0 -352 -6q-12 10 -13 37zM299 1577q0 57 36 94t89 37t88 -36t35 -89t-35 -89t-88 -36t-88 31t-37 88zM727 1577q0 57 36 94t89 37t88 -36t35 -89t-35 -89t-88 -36t-88 31t-37 88z" />
<glyph unicode="&#xcc;" horiz-adv-x="759" d="M57 31q0 27 13 35l57 10q72 12 89 47t17 176v754q0 141 -17 176t-89 47l-57 10q-12 8 -13 35q0 27 13 37q166 -6 310 -6t310 6q12 -10 12 -37t-12 -35l-57 -10q-71 -12 -89 -47t-18 -176v-754q0 -141 18 -176t89 -47l57 -10q12 -10 11 -36t-13 -36q-166 6 -309 6t-309 -6 q-12 10 -13 37zM59 1714q51 76 77 76t67 -33l323 -250q12 -31 -22 -61l-402 131q-110 31 -43 137z" />
<glyph unicode="&#xcd;" horiz-adv-x="759" d="M57 31q0 27 13 35l57 10q72 12 89 47t17 176v754q0 141 -17 176t-89 47l-57 10q-12 8 -13 35q0 27 13 37q166 -6 310 -6t310 6q12 -10 12 -37t-12 -35l-57 -10q-71 -12 -89 -47t-18 -176v-754q0 -141 18 -176t89 -47l57 -10q12 -10 11 -36t-13 -36q-166 6 -309 6t-309 -6 q-12 10 -13 37zM231 1497l332 256q47 35 68 35q37 0 69 -64t21 -96q-8 -35 -66 -51l-401 -131q-33 12 -23 51z" />
<glyph unicode="&#xce;" horiz-adv-x="759" d="M57 31q0 27 13 35l57 10q72 12 89 47t17 176v754q0 141 -17 176t-89 47l-57 10q-12 8 -13 35q0 27 13 37q166 -6 310 -6t310 6q12 -10 12 -37t-12 -35l-57 -10q-71 -12 -89 -47t-18 -176v-754q0 -141 18 -176t89 -47l57 -10q12 -10 11 -36t-13 -36q-166 6 -309 6t-309 -6 q-12 10 -13 37zM82 1495l260 244q47 47 96 0l260 -244q6 -15 -4 -31t-22 -18l-248 108q-35 14 -68 0l-245 -108q-14 0 -25 16q-10 16 -4 33z" />
<glyph unicode="&#xcf;" horiz-adv-x="759" d="M43 1577q0 57 36 94t89 37t88 -36t35 -89t-35 -89t-88 -36t-88 31t-37 88zM57 31q0 27 13 35l57 10q72 12 89 47t17 176v754q0 141 -17 176t-89 47l-57 10q-12 8 -13 35q0 27 13 37q166 -6 310 -6t310 6q12 -10 12 -37t-12 -35l-57 -10q-71 -12 -89 -47t-18 -176v-754 q0 -141 18 -176t89 -47l57 -10q12 -10 11 -36t-13 -36q-166 6 -309 6t-309 -6q-12 10 -13 37zM471 1577q0 57 36 94t89 37t88 -36t35 -89t-35 -89t-88 -36t-88 31t-37 88z" />
<glyph unicode="&#xd0;" horiz-adv-x="1644" d="M57 701q0 34 17 57h172v262q0 154 -16 194t-83 50l-38 4q-16 8 -16 39q1 31 20 32q309 19 575 19t456 -69q192 -69 302 -231t108 -366q0 -204 -95 -362t-279 -250t-510 -92l-273 12q-143 0 -319 -6q-12 10 -12 37t12 35l63 10q69 10 87 45t18 174v354h-172q-16 18 -17 52 zM539 371q0 -182 41 -230q53 -59 175 -59t217 52q165 90 227 331q26 100 26 211q1 280 -145 434t-421 154q-86 0 -103 -23t-17 -123v-360h274q16 -16 16 -53t-16 -56h-274v-278z" />
<glyph unicode="&#xd1;" horiz-adv-x="1531" d="M28 1326q3 28 17 32q145 -6 267 -6t188 6q24 -98 206 -310q36 -42 132 -157l172 -203q158 -186 196 -225q8 20 8 92v283q0 299 -30 374q-23 51 -119 66l-55 8q-12 12 -12 37q1 25 12 35q166 -6 274 -6t229 6q9 -10 11 -35t-11 -37l-36 -6q-88 -14 -111 -68 q-31 -75 -31 -374v-490q0 -262 4 -330q-10 -18 -47 -32t-73 -15l-21 29q-58 89 -145 195l-473 585q-195 238 -224 262q-10 -20 -10 -131v-397q0 -299 31 -375q23 -51 119 -65l57 -8q12 -12 11 -37t-11 -35q-167 6 -277 6t-227 -6q-10 10 -11 35t11 37l35 6q94 16 113 67 q29 70 28 375v520q0 141 -14 174q-27 57 -117 70l-57 8q-12 12 -9 40zM539 1425q12 43 40 105t52 92q51 59 137 59h127q57 1 92 21t60 80q53 12 71 -10q-29 -116 -65 -168q-37 -52 -65 -64t-81 -12h-104q-74 0 -114 -25t-79 -90q-14 -8 -39 -5t-32 17z" />
<glyph unicode="&#xd2;" horiz-adv-x="1613" d="M82 660q0 312 207 518t525 206t518 -196t200 -516q0 -322 -203 -513t-526 -191t-522 190t-199 502zM410 734q0 -241 85 -439q44 -104 131 -169t205 -65q190 0 282 163q91 163 91 432t-110 452q-111 182 -296 182t-287 -157q-101 -158 -101 -399zM506 1716q33 63 69 64 q23 0 68 -31l332 -242q12 -31 -23 -61l-401 131q-108 30 -45 139z" />
<glyph unicode="&#xd3;" horiz-adv-x="1613" d="M82 660q0 312 207 518t525 206t518 -196t200 -516q0 -322 -203 -513t-526 -191t-522 190t-199 502zM410 734q0 -241 85 -439q44 -104 131 -169t205 -65q190 0 282 163q91 163 91 432t-110 452q-111 182 -296 182t-287 -157q-101 -158 -101 -399zM657 1497l332 248 q47 35 68 35q37 0 69 -64q64 -109 -45 -139l-401 -131q-33 12 -23 51z" />
<glyph unicode="&#xd4;" horiz-adv-x="1613" d="M82 660q0 312 207 518t525 206t518 -196t200 -516q0 -322 -203 -513t-526 -191t-522 190t-199 502zM410 734q0 -241 85 -439q44 -104 131 -169t205 -65q190 0 282 163q91 163 91 432t-110 452q-111 182 -296 182t-287 -157q-101 -158 -101 -399zM510 1495l260 244 q47 47 96 0l260 -244q6 -15 -4 -31t-22 -18l-248 102q-35 20 -68 2l-245 -104q-14 0 -25 16q-10 16 -4 33z" />
<glyph unicode="&#xd5;" horiz-adv-x="1613" d="M82 660q0 312 207 518t525 206t518 -196t200 -516q0 -322 -203 -513t-526 -191t-522 190t-199 502zM410 734q0 -241 85 -439q44 -104 131 -169t205 -65q190 0 282 163q91 163 91 432t-110 452q-111 182 -296 182t-287 -157q-101 -158 -101 -399zM518 1425q65 258 230 258 h126q58 -1 94 19t60 82q55 12 70 -10q-23 -114 -69 -180t-142 -66h-105q-74 0 -114 -25t-78 -92q-16 -6 -41 -2t-31 16z" />
<glyph unicode="&#xd6;" horiz-adv-x="1613" d="M82 660q0 312 207 518t525 206t518 -196t200 -516q0 -322 -203 -513t-526 -191t-522 190t-199 502zM410 734q0 -241 85 -439q44 -104 131 -169t205 -65q190 0 282 163q91 163 91 432t-110 452q-111 182 -296 182t-287 -157q-101 -158 -101 -399zM469 1577q0 57 36 94 t89 37t88 -36t35 -89t-35 -89t-88 -36t-88 31t-37 88zM897 1577q0 57 36 94t89 37t88 -36t35 -89t-35 -89t-88 -36t-88 31t-37 88z" />
<glyph unicode="&#xd7;" d="M129 119l295 297l-295 297l104 110l299 -299l299 303l107 -108l-299 -301l299 -299l-107 -111l-301 301l-297 -301z" />
<glyph unicode="&#xd8;" horiz-adv-x="1613" d="M82 666q0 307 207 513t524 205q205 0 365 -79l88 122q28 2 56 -16t36 -43l-86 -121q260 -193 260 -567q0 -330 -203 -521t-536 -192q-207 0 -365 86l-100 -141q-25 -2 -54 18t-34 47l94 134q-252 195 -252 555zM410 732q0 -244 73 -410l584 825q-109 143 -281 143 t-275 -157q-101 -157 -101 -401zM543 215q106 -154 292 -154t278 163q91 162 91 410t-78 408z" />
<glyph unicode="&#xd9;" horiz-adv-x="1515" d="M55 1323q0 27 17 35q147 -6 299 -6t299 6q12 -10 12 -35t-12 -35l-49 -8q-70 -12 -87 -47t-18 -176v-473q0 -290 84 -398q36 -46 100 -76t154 -30q342 0 342 510v248q0 303 -31 374q-20 47 -118 66l-56 10q-12 12 -11 36t11 34q166 -6 277 -6t227 6q10 -10 11 -34 t-11 -36l-37 -8q-90 -20 -110 -68q-31 -72 -31 -374v-230q0 -168 -27 -288t-104 -205q-138 -147 -404 -147t-412 119q-146 120 -147 458v512q0 139 -16 173t-88 48l-51 10q-12 8 -13 35zM457 1716q33 63 69 64q23 0 68 -31l332 -242q12 -31 -23 -61l-401 131 q-108 30 -45 139z" />
<glyph unicode="&#xda;" horiz-adv-x="1515" d="M55 1323q0 27 17 35q147 -6 299 -6t299 6q12 -10 12 -35t-12 -35l-49 -8q-70 -12 -87 -47t-18 -176v-473q0 -290 84 -398q36 -46 100 -76t154 -30q342 0 342 510v248q0 303 -31 374q-20 47 -118 66l-56 10q-12 12 -11 36t11 34q166 -6 277 -6t227 6q10 -10 11 -34 t-11 -36l-37 -8q-90 -20 -110 -68q-31 -72 -31 -374v-230q0 -168 -27 -288t-104 -205q-138 -147 -404 -147t-412 119q-146 120 -147 458v512q0 139 -16 173t-88 48l-51 10q-12 8 -13 35zM690 1497l332 248q47 35 68 35q37 0 69 -64q64 -109 -45 -139l-401 -131 q-33 12 -23 51z" />
<glyph unicode="&#xdb;" horiz-adv-x="1515" d="M55 1323q0 27 17 35q147 -6 299 -6t299 6q12 -10 12 -35t-12 -35l-49 -8q-70 -12 -87 -47t-18 -176v-473q0 -290 84 -398q36 -46 100 -76t154 -30q342 0 342 510v248q0 303 -31 374q-20 47 -118 66l-56 10q-12 12 -11 36t11 34q166 -6 277 -6t227 6q10 -10 11 -34 t-11 -36l-37 -8q-90 -20 -110 -68q-31 -72 -31 -374v-230q0 -168 -27 -288t-104 -205q-138 -147 -404 -147t-412 119q-146 120 -147 458v512q0 139 -16 173t-88 48l-51 10q-12 8 -13 35zM487 1493l248 231q47 43 90 0l248 -231q6 -17 -3 -31t-21 -16l-236 98q-35 16 -65 0 l-234 -98q-14 0 -24 15q-9 15 -3 32z" />
<glyph unicode="&#xdc;" horiz-adv-x="1515" d="M55 1323q0 27 17 35q147 -6 299 -6t299 6q12 -10 12 -35t-12 -35l-49 -8q-70 -12 -87 -47t-18 -176v-473q0 -290 84 -398q36 -46 100 -76t154 -30q342 0 342 510v248q0 303 -31 374q-20 47 -118 66l-56 10q-12 12 -11 36t11 34q166 -6 277 -6t227 6q10 -10 11 -34 t-11 -36l-37 -8q-90 -20 -110 -68q-31 -72 -31 -374v-230q0 -168 -27 -288t-104 -205q-138 -147 -404 -147t-412 119q-146 120 -147 458v512q0 139 -16 173t-88 48l-51 10q-12 8 -13 35zM461 1577q0 57 36 94t89 37t88 -36t35 -89t-35 -89t-88 -36t-88 31t-37 88zM889 1577 q0 57 36 94t89 37t88 -36t35 -89t-35 -89t-88 -36t-88 31t-37 88z" />
<glyph unicode="&#xdd;" horiz-adv-x="1177" d="M-53 1326q2 28 20 32q139 -6 311 -6t277 6q14 -6 16 -33t-12 -39l-70 -16q-49 -10 -49 -19q0 -25 54 -143l96 -219q44 -96 69 -147q26 -50 33 -66q30 47 152 290t123 279q0 18 -82 33l-39 8q-12 8 -12 36t14 36q124 -6 232 -6t198 6q18 -6 19 -34t-11 -38l-53 -10 q-78 -12 -107 -49q-59 -74 -178 -291l-129 -234q-41 -74 -54 -126t-13 -138v-143q0 -141 17 -175t87 -44l82 -10q10 -10 10 -36t-10 -36q-201 6 -336 6t-317 -6q-12 10 -13 36q0 26 13 36l69 10q70 10 87 45t18 174v102q0 82 -9 124t-47 120l-243 504q-35 69 -58 95t-73 34 l-70 12q-14 12 -12 40zM502 1497l332 248q47 35 67 35q37 0 70 -64q63 -109 -45 -139l-402 -131q-32 12 -22 51z" />
<glyph unicode="&#xde;" horiz-adv-x="1216" d="M58 1322q1 28 20 36q150 -6 302 -6t308 6q16 -10 16 -37t-16 -35l-57 -10q-70 -12 -87 -43t-18 -156h138q301 0 428 -162q66 -84 65 -215q0 -180 -134 -271t-325 -91l-39 2q-14 8 -16 26t10 27q111 37 149 107t38 188t-58 207q-58 88 -164 88q-60 0 -76 -19t-16 -85v-584 q0 -139 18 -174t87 -45l67 -10q12 -8 12 -35t-12 -37q-178 6 -317 6t-309 -6q-12 10 -13 37q0 27 13 35l57 10q72 12 88 46t16 173v762q0 139 -16 173t-88 46l-57 10q-14 8 -14 36z" />
<glyph unicode="&#xdf;" horiz-adv-x="1173" d="M33 735q-2 20 6 29l88 45q45 25 45 53q0 182 56 304t182 210t306 88q181 0 278 -87t98 -206q0 -82 -30 -127t-101 -102l-33 -27q-92 -76 -92 -143t62 -124q11 -11 44 -41t43 -40q154 -141 154 -283q-1 -142 -99 -228t-266 -85q-80 0 -138 31t-58 104q0 41 15 73t37 32 t56 -36q33 -36 75 -73q42 -36 76 -36q33 0 55 24t21 68q0 90 -122 196q-84 72 -131 134q-46 62 -46 127t23 115t39 70t63 72q121 129 121 245t-52 185t-126 68q-116 0 -180 -133t-64 -371v-628q0 -106 12 -133t74 -39q12 -8 12 -36t-14 -36q-58 6 -212 6t-249 -6 q-14 8 -15 36t11 36l33 4q55 6 69 33q13 28 13 135v413q0 41 -8 49t-43 9h-76q-10 6 -12 26z" />
<glyph unicode="&#xe0;" horiz-adv-x="907" d="M66 174q0 90 50 141t146 80t209 62q45 12 49 41q4 45 4 92t-29 100q-30 53 -89 53q-88 0 -107 -116q-6 -43 -32 -63q-25 -20 -73 -34q-48 -16 -77 -16q-47 0 -47 51q0 80 98 158q158 125 344 125q276 0 262 -297l-14 -270q-6 -94 23 -136q30 -41 67 -41t80 25 q14 -2 21 -17t3 -30q-28 -35 -94 -73t-148 -38t-167 72q-19 16 -31 16t-45 -22q-90 -66 -180 -66q-90 1 -157 57q-66 56 -66 146zM193 1292q0 30 55 74q46 32 80 32t63 -61l187 -372q-6 -39 -52 -33l-288 285q-45 45 -45 75zM328 227q0 -49 30 -86t75 -37q44 0 60 24 q15 24 17 77l4 129q2 25 -1 32t-13 5q-172 -23 -172 -144z" />
<glyph unicode="&#xe1;" horiz-adv-x="907" d="M66 174q0 90 50 141t146 80t209 62q45 12 49 41q4 45 4 92t-29 100q-30 53 -89 53q-88 0 -107 -116q-6 -43 -32 -63q-25 -20 -73 -34q-48 -16 -77 -16q-47 0 -47 51q0 80 98 158q158 125 344 125q276 0 262 -297l-14 -270q-6 -94 23 -136q30 -41 67 -41t80 25 q14 -2 21 -17t3 -30q-28 -35 -94 -73t-148 -38t-167 72q-19 16 -31 16t-45 -22q-90 -66 -180 -66q-90 1 -157 57q-66 56 -66 146zM328 227q0 -49 30 -86t75 -37q44 0 60 24q15 24 17 77l4 129q2 25 -1 32t-13 5q-172 -23 -172 -144zM381 948l186 373q29 61 63 61t81 -32 q55 -43 55 -74t-45 -76l-289 -285q-45 -6 -51 33z" />
<glyph unicode="&#xe2;" horiz-adv-x="907" d="M66 174q0 90 50 141t146 80t209 62q45 12 49 41q4 45 4 92t-29 100q-30 53 -89 53q-88 0 -107 -116q-6 -43 -32 -63q-25 -20 -73 -34q-48 -16 -77 -16q-47 0 -47 51q0 80 98 158q158 125 344 125q276 0 262 -297l-14 -270q-6 -94 23 -136q30 -41 67 -41t80 25 q14 -2 21 -17t3 -30q-28 -35 -94 -73t-148 -38t-167 72q-19 16 -31 16t-45 -22q-90 -66 -180 -66q-90 1 -157 57q-66 56 -66 146zM190 958l218 392q14 26 47 26t47 -26l217 -392q-14 -33 -60 -36l-163 188q-33 39 -41 39t-43 -37l-164 -190q-44 3 -58 36zM328 227 q0 -49 30 -86t75 -37q44 0 60 24q15 24 17 77l4 129q2 25 -1 32t-13 5q-172 -23 -172 -144z" />
<glyph unicode="&#xe3;" horiz-adv-x="907" d="M66 174q0 90 50 141t146 80t209 62q45 12 49 41q4 45 4 92t-29 100q-30 53 -89 53q-88 0 -107 -116q-6 -43 -32 -63q-25 -20 -73 -34q-48 -16 -77 -16q-47 0 -47 51q0 80 98 158q158 125 344 125q276 0 262 -297l-14 -270q-6 -94 23 -136q30 -41 67 -41t80 25 q14 -2 21 -17t3 -30q-28 -35 -94 -73t-148 -38t-167 72q-19 16 -31 16t-45 -22q-90 -66 -180 -66q-90 1 -157 57q-66 56 -66 146zM182 956q39 121 84 179q47 57 125 57h115q68 0 102 18t58 78q12 4 34 1t27 -11q-18 -102 -62 -168t-128 -66h-115q-119 0 -176 -100 q-8 -6 -33 -3t-31 15zM328 227q0 -49 30 -86t75 -37q44 0 60 24q15 24 17 77l4 129q2 25 -1 32t-13 5q-172 -23 -172 -144z" />
<glyph unicode="&#xe4;" horiz-adv-x="907" d="M66 174q0 90 50 141t146 80t209 62q45 12 49 41q4 45 4 92t-29 100q-30 53 -89 53q-88 0 -107 -116q-6 -43 -32 -63q-25 -20 -73 -34q-48 -16 -77 -16q-47 0 -47 51q0 80 98 158q158 125 344 125q276 0 262 -297l-14 -270q-6 -94 23 -136q30 -41 67 -41t80 25 q14 -2 21 -17t3 -30q-28 -35 -94 -73t-148 -38t-167 72q-19 16 -31 16t-45 -22q-90 -66 -180 -66q-90 1 -157 57q-66 56 -66 146zM143 1108q0 57 37 94t91 37t90 -36t36 -90t-35 -90t-90 -36t-91 32t-38 89zM328 227q0 -49 30 -86t75 -37q44 0 60 24q15 24 17 77l4 129 q2 25 -1 32t-13 5q-172 -23 -172 -144zM512 1108q0 57 37 94t91 37t90 -36t36 -90t-35 -90t-90 -36t-91 32t-38 89z" />
<glyph unicode="&#xe5;" horiz-adv-x="907" d="M66 174q0 90 50 141t146 80t209 62q45 12 49 41q4 45 4 92t-29 100q-30 53 -89 53q-88 0 -107 -116q-6 -43 -32 -63q-25 -20 -73 -34q-48 -16 -77 -16q-47 0 -47 51q0 80 98 158q158 125 344 125q276 0 262 -297l-14 -270q-6 -94 23 -136q30 -41 67 -41t80 25 q14 -2 21 -17t3 -30q-28 -35 -94 -73t-148 -38t-167 72q-19 16 -31 16t-45 -22q-90 -66 -180 -66q-90 1 -157 57q-66 56 -66 146zM234 1140q0 82 60 141q62 60 162 60t159 -59q61 -59 61 -141q0 -83 -60 -143t-160 -60q-99 0 -161 60q-61 60 -61 142zM328 227q0 -49 30 -86 t75 -37q44 0 60 24q15 24 17 77l4 129q2 25 -1 32t-13 5q-172 -23 -172 -144zM356 1141q0 -53 27 -89t72 -36t71 36t27 89q0 53 -27 90q-28 37 -72 37t-71 -37t-27 -90z" />
<glyph unicode="&#xe6;" horiz-adv-x="1284" d="M66 190q0 152 204 211l213 62q16 4 22 14q5 10 5 39v23q0 154 -46 187q-24 17 -63 17q-86 0 -104 -116q-6 -43 -32 -63t-75 -34q-49 -16 -73 -16q-47 0 -47 49q0 78 100 162q61 49 148 86t167 37q139 0 205 -90q112 90 260 90t232 -68t84 -149q0 -57 -70 -74l-403 -108 q-23 -7 -29 -15t-6 -37q0 -121 72 -195t197 -73q126 0 196 115q45 0 51 -41q-101 -232 -369 -232q-203 0 -291 121q-12 16 -21 17t-54 -32q-46 -32 -54 -37q-9 -6 -35 -22t-39 -20t-46 -16t-78 -11q-84 -1 -153 61t-68 158zM322 227q0 -55 32 -87t72 -31q84 0 84 100v135 q0 29 -21 29q-39 -4 -88 -27q-80 -35 -79 -119zM764 603q0 -46 8 -55t33 -1l168 45q43 12 43 55t-30 75t-84 32t-96 -52t-42 -99z" />
<glyph unicode="&#xe7;" horiz-adv-x="851" d="M63 385q1 211 149 337t363 126q121 0 216 -35q43 -37 43 -94t-18 -93t-40 -36q-23 0 -28 10q-109 154 -207 154q-97 0 -153 -89t-56 -212t79 -221t208 -97q129 0 188 101q21 2 37 -10t16 -36q-35 -78 -115 -140t-194 -75l-59 -81q-12 -16 -9 -24q4 -7 27 -20 q125 -68 125 -174q0 -82 -78 -136t-182 -54q-158 0 -158 90q1 29 19 48q47 48 121 -18q43 -38 63 -38t38 14q17 14 17 37q0 82 -156 148l-6 16l131 192q-172 14 -276 127t-105 283z" />
<glyph unicode="&#xe8;" horiz-adv-x="860" d="M66 398q0 186 125 318q126 132 317 132q154 0 241 -85t87 -210q0 -68 -74 -68h-393q-35 0 -43 -6t-9 -30q0 -123 77 -213t208 -90t195 106q17 4 35 -9t18 -38q-58 -121 -156 -177t-202 -57q-199 0 -313 121q-113 120 -113 306zM209 1296q0 30 55 74q47 32 81 32t63 -61 l186 -372q-6 -39 -51 -33l-289 285q-45 45 -45 75zM334 606q0 -20 20 -26t74 -5h76q54 -1 76 13t22 59t-29 76t-85 31t-104 -48q-50 -48 -50 -100z" />
<glyph unicode="&#xe9;" horiz-adv-x="860" d="M66 398q0 186 125 318q126 132 317 132q154 0 241 -85t87 -210q0 -68 -74 -68h-393q-35 0 -43 -6t-9 -30q0 -123 77 -213t208 -90t195 106q17 4 35 -9t18 -38q-58 -121 -156 -177t-202 -57q-199 0 -313 121q-113 120 -113 306zM334 606q0 -20 20 -26t74 -5h76 q54 -1 76 13t22 59t-29 76t-85 31t-104 -48q-50 -48 -50 -100zM408 961l186 372q28 61 62 61t81 -32q55 -43 55 -74t-44 -76l-289 -284q-45 -6 -51 33z" />
<glyph unicode="&#xea;" horiz-adv-x="860" d="M66 398q0 186 125 318q126 132 317 132q154 0 241 -85t87 -210q0 -68 -74 -68h-393q-35 0 -43 -6t-9 -30q0 -123 77 -213t208 -90t195 106q17 4 35 -9t18 -38q-58 -121 -156 -177t-202 -57q-199 0 -313 121q-113 120 -113 306zM211 948l217 391q14 27 47 27t47 -27 l217 -391q-14 -33 -59 -37l-164 189q-33 39 -41 39t-43 -37l-164 -191q-43 4 -57 37zM334 606q0 -20 20 -26t74 -5h76q54 -1 76 13t22 59t-29 76t-85 31t-104 -48q-50 -48 -50 -100z" />
<glyph unicode="&#xeb;" horiz-adv-x="860" d="M66 398q0 186 125 318q126 132 317 132q154 0 241 -85t87 -210q0 -68 -74 -68h-393q-35 0 -43 -6t-9 -30q0 -123 77 -213t208 -90t195 106q17 4 35 -9t18 -38q-58 -121 -156 -177t-202 -57q-199 0 -313 121q-113 120 -113 306zM160 1108q0 57 37 94t91 37t90 -36t36 -90 t-35 -90t-90 -36t-91 32t-38 89zM334 606q0 -20 20 -26t74 -5h76q54 -1 76 13t22 59t-29 76t-85 31t-104 -48q-50 -48 -50 -100zM528 1108q0 57 37 94t91 37t90 -36t36 -90t-35 -90t-90 -36t-91 32t-38 89z" />
<glyph unicode="&#xec;" horiz-adv-x="585" d="M29 1296q0 30 55 74q46 32 80 32t63 -61l187 -372q-6 -39 -52 -33l-288 285q-45 45 -45 75zM45 30q0 28 12 36l39 4q51 4 64 31q12 28 12 137v309q0 67 -6 91t-33 40l-29 18q-10 8 -10 31t10 31q195 53 304 119q25 0 36 -19q-6 -92 -6 -244v-376q0 -109 12 -137t64 -31 l39 -4q12 -8 12 -36t-14 -36q-109 6 -250 6t-242 -6q-14 8 -14 36z" />
<glyph unicode="&#xed;" horiz-adv-x="585" d="M45 30q0 28 12 36l39 4q51 4 64 31q12 28 12 137v309q0 67 -6 91t-33 40l-29 18q-10 8 -10 31t10 31q195 53 304 119q25 0 36 -19q-6 -92 -6 -244v-376q0 -109 12 -137t64 -31l39 -4q12 -8 12 -36t-14 -36q-109 6 -250 6t-242 -6q-14 8 -14 36zM197 963l186 372 q29 61 63 61t80 -32q56 -43 56 -74t-45 -76l-289 -284q-45 -6 -51 33z" />
<glyph unicode="&#xee;" horiz-adv-x="585" d="M29 969l217 391q14 26 47 26t47 -26l217 -391q-14 -33 -59 -37l-164 188q-33 39 -42 39t-42 -37l-164 -190q-43 4 -57 37zM45 30q0 28 12 36l39 4q51 4 64 31q12 28 12 137v309q0 67 -6 91t-33 40l-29 18q-10 8 -10 31t10 31q195 53 304 119q25 0 36 -19q-6 -92 -6 -244 v-376q0 -109 12 -137t64 -31l39 -4q12 -8 12 -36t-14 -36q-109 6 -250 6t-242 -6q-14 8 -14 36z" />
<glyph unicode="&#xef;" horiz-adv-x="585" d="M-18 1108q0 57 36 94q38 37 92 37t90 -36t36 -90t-35 -90t-90 -36t-92 32q-36 32 -37 89zM45 30q0 28 12 36l39 4q51 4 64 31q12 28 12 137v309q0 67 -6 91t-33 40l-29 18q-10 8 -10 31t10 31q195 53 304 119q25 0 36 -19q-6 -92 -6 -244v-376q0 -109 12 -137t64 -31 l39 -4q12 -8 12 -36t-14 -36q-109 6 -250 6t-242 -6q-14 8 -14 36zM350 1108q0 57 37 94t91 37t90 -36t36 -90t-35 -90t-90 -36t-91 32t-38 89z" />
<glyph unicode="&#xf0;" horiz-adv-x="1056" d="M64 398q-2 206 140 328t345 122q82 0 137 -25q-12 109 -108 260l-295 -143q-27 12 -36 45t3 53l268 129q-78 101 -177 161t-169 69q-16 8 -18 34t20 33q170 0 305 -65q119 -53 213 -144l275 131q25 -10 36 -40t3 -56l-236 -112q225 -272 225 -597t-134 -467 q-133 -142 -337 -142t-331 110t-129 316zM358 420q0 -166 48 -260t138 -94q89 0 129 123t36 378q-2 92 -50 140q-51 47 -108 47q-84 0 -138 -84q-55 -84 -55 -250z" />
<glyph unicode="&#xf1;" horiz-adv-x="1126" d="M45 30q0 28 12 36l33 4q55 6 69 33q13 29 13 135v309q0 67 -6 91t-33 40l-29 18q-10 8 -10 31t10 31q201 55 304 119q25 0 36 -19l-6 -92q0 -16 8 -16t41 16q139 82 249 82t176 -74t67 -184v-352q0 -106 13 -134t69 -34l33 -4q12 -8 12 -36t-14 -36q-96 6 -238 6t-231 -6 q-14 8 -15 36q0 28 13 36l36 6q37 6 46 28t10 107v346q0 65 -35 105t-112 40t-111 -49q-16 -18 -17 -76v-366q0 -84 10 -109t50 -28l32 -4q12 -8 12 -36t-14 -36q-94 6 -228 6t-241 -6q-14 8 -14 36zM279 973q37 123 88 185t131 63h120q70 0 107 19t61 81q12 4 35 1t29 -11 q-18 -106 -70 -187q-41 -59 -129 -59h-121q-123 0 -184 -104q-10 -9 -36 -5t-31 17z" />
<glyph unicode="&#xf2;" horiz-adv-x="1056" d="M64 396q-2 206 138 329t333 123t325 -115t133 -325q0 -210 -134 -323q-134 -114 -333 -114q-200 0 -330 110q-130 109 -132 315zM227 1284q-1 31 51 69q52 37 86 37t62 -61l186 -373q-6 -39 -51 -32l-289 284q-45 45 -45 76zM358 435q0 -163 50 -266t137 -103 q158 0 153 317q-2 159 -47 265t-123 106t-124 -78t-46 -241z" />
<glyph unicode="&#xf3;" horiz-adv-x="1056" d="M64 396q-2 206 138 329t333 123t325 -115t133 -325q0 -210 -134 -323q-134 -114 -333 -114q-200 0 -330 110q-130 109 -132 315zM358 435q0 -163 50 -266t137 -103q158 0 153 317q-2 159 -47 265t-123 106t-124 -78t-46 -241zM418 958l186 373q29 61 63 61t81 -32 q55 -43 55 -74t-45 -76l-289 -284q-45 -7 -51 32z" />
<glyph unicode="&#xf4;" horiz-adv-x="1056" d="M64 396q-2 206 138 329t333 123t325 -115t133 -325q0 -210 -134 -323q-134 -114 -333 -114q-200 0 -330 110q-130 109 -132 315zM264 948l217 391q14 27 47 27t47 -27l218 -391q-14 -33 -60 -37l-164 189q-33 39 -41 39t-43 -37l-163 -191q-44 4 -58 37zM358 435 q0 -163 50 -266t137 -103q158 0 153 317q-2 159 -47 265t-123 106t-124 -78t-46 -241z" />
<glyph unicode="&#xf5;" horiz-adv-x="1056" d="M64 396q-2 206 138 329t333 123t325 -115t133 -325q0 -210 -134 -323q-134 -114 -333 -114q-200 0 -330 110q-130 109 -132 315zM256 956q39 121 84 179q47 57 125 57h115q68 0 102 18t57 78q12 4 34 1t28 -11q-19 -102 -63 -168t-128 -66h-114q-119 0 -177 -100 q-9 -6 -33 -3t-30 15zM358 435q0 -163 50 -266t137 -103q158 0 153 317q-2 159 -47 265t-123 106t-124 -78t-46 -241z" />
<glyph unicode="&#xf6;" horiz-adv-x="1056" d="M64 396q-2 206 138 329t333 123t325 -115t133 -325q0 -210 -134 -323q-134 -114 -333 -114q-200 0 -330 110q-130 109 -132 315zM217 1108q0 57 37 94t91 37t90 -36t36 -90t-35 -90t-90 -36t-91 32t-38 89zM358 435q0 -163 50 -266t137 -103q158 0 153 317 q-2 159 -47 265t-123 106t-124 -78t-46 -241zM586 1108q0 57 37 94t91 37t90 -36t36 -90t-35 -90t-90 -36t-91 32t-38 89z" />
<glyph unicode="&#xf7;" d="M123 362v148h821v-148h-821zM410 145q0 51 36 87t86 36t86 -36t37 -87t-35 -88t-86 -37t-88 37q-37 37 -36 88zM410 728q0 52 36 88t86 36t86 -37t37 -87t-35 -87t-86 -37t-88 36q-36 36 -36 88z" />
<glyph unicode="&#xf8;" horiz-adv-x="1056" d="M63 388q-1 214 139 337t333 123q131 0 219 -47l71 98q59 -4 72 -53l-68 -90q164 -117 164 -337t-134 -334t-337 -114q-129 0 -221 47l-84 -114q-57 8 -70 53l78 104q-160 113 -162 327zM352 469q0 -129 23 -205l274 393q-43 97 -124 97t-127 -78t-46 -207zM410 164 q43 -98 135 -98q164 0 160 317q-1 92 -21 172z" />
<glyph unicode="&#xf9;" horiz-adv-x="1114" d="M61 761q2 24 17 34q170 6 229 23q58 18 77 24t22 6q20 0 24 -25q-6 -78 -6 -180v-338q0 -90 28 -137t100 -47t124 39q23 16 22 61v387q0 62 -16 82t-72 29l-28 4q-12 10 -11 38q2 28 21 34q216 10 333 47q22 6 25 6q16 0 21 -25q-6 -110 -6 -180v-373q0 -98 10 -136 t44 -38t83 17q14 -2 13 -41t-19 -47q-113 -4 -189 -23q-75 -18 -111 -28t-59 -15l-20 -8q-20 2 -25 24q6 37 6 65t-22 30q-53 -34 -82 -50q-87 -47 -205 -48q-231 -2 -231 261v349q0 78 -12 100t-50 33l-26 8q-10 14 -9 38zM287 1274q0 31 55 74q46 32 80 32t63 -61 l187 -373q-6 -39 -51 -33l-289 285q-45 45 -45 76z" />
<glyph unicode="&#xfa;" horiz-adv-x="1114" d="M61 761q2 24 17 34q170 6 229 23q58 18 77 24t22 6q20 0 24 -25q-6 -78 -6 -180v-338q0 -90 28 -137t100 -47t124 39q23 16 22 61v387q0 62 -16 82t-72 29l-28 4q-12 10 -11 38q2 28 21 34q216 10 333 47q22 6 25 6q16 0 21 -25q-6 -110 -6 -180v-373q0 -98 10 -136 t44 -38t83 17q14 -2 13 -41t-19 -47q-113 -4 -189 -23q-75 -18 -111 -28t-59 -15l-20 -8q-20 2 -25 24q6 37 6 65t-22 30q-53 -34 -82 -50q-87 -47 -205 -48q-231 -2 -231 261v349q0 78 -12 100t-50 33l-26 8q-10 14 -9 38zM461 969l186 372q29 61 63 61t81 -32 q55 -43 55 -74t-45 -75l-289 -285q-45 -6 -51 33z" />
<glyph unicode="&#xfb;" horiz-adv-x="1114" d="M61 761q2 24 17 34q170 6 229 23q58 18 77 24t22 6q20 0 24 -25q-6 -78 -6 -180v-338q0 -90 28 -137t100 -47t124 39q23 16 22 61v387q0 62 -16 82t-72 29l-28 4q-12 10 -11 38q2 28 21 34q216 10 333 47q22 6 25 6q16 0 21 -25q-6 -110 -6 -180v-373q0 -98 10 -136 t44 -38t83 17q14 -2 13 -41t-19 -47q-113 -4 -189 -23q-75 -18 -111 -28t-59 -15l-20 -8q-20 2 -25 24q6 37 6 65t-22 30q-53 -34 -82 -50q-87 -47 -205 -48q-231 -2 -231 261v349q0 78 -12 100t-50 33l-26 8q-10 14 -9 38zM293 967l217 391q14 26 47 26t47 -26l217 -391 q-14 -33 -59 -37l-164 188q-33 39 -41 39t-43 -37l-164 -190q-43 4 -57 37z" />
<glyph unicode="&#xfc;" horiz-adv-x="1114" d="M61 761q2 24 17 34q170 6 229 23q58 18 77 24t22 6q20 0 24 -25q-6 -78 -6 -180v-338q0 -90 28 -137t100 -47t124 39q23 16 22 61v387q0 62 -16 82t-72 29l-28 4q-12 10 -11 38q2 28 21 34q216 10 333 47q22 6 25 6q16 0 21 -25q-6 -110 -6 -180v-373q0 -98 10 -136 t44 -38t83 17q14 -2 13 -41t-19 -47q-113 -4 -189 -23q-75 -18 -111 -28t-59 -15l-20 -8q-20 2 -25 24q6 37 6 65t-22 30q-53 -34 -82 -50q-87 -47 -205 -48q-231 -2 -231 261v349q0 78 -12 100t-50 33l-26 8q-10 14 -9 38zM246 1108q0 57 37 94t91 37t90 -36t36 -90 t-35 -90t-90 -36t-91 32t-38 89zM614 1108q0 57 37 94t91 37t90 -36t36 -90t-35 -90t-90 -36t-91 32t-38 89z" />
<glyph unicode="&#xfd;" horiz-adv-x="960" d="M-23 792q2 28 17 33q111 -6 249 -6t251 6q14 -5 16 -33t-10 -38l-41 -9q-41 -8 -51 -16t-10 -23t61 -182q90 -229 92 -233q16 29 63 135l37 84q76 174 76 207q0 20 -45 28l-41 9q-14 10 -12 39t18 32q67 -6 173 -6t186 6q14 -7 16 -35t-12 -36l-39 -4q-66 -6 -94 -45 q-49 -66 -121 -216l-420 -868q-61 -131 -176 -135q-131 -2 -131 123q0 47 31 77q32 30 85 29h50q68 0 100 43q16 22 52 96t36 113t-39 139l-197 496q-33 80 -54 109t-68 37l-37 6q-12 10 -11 38zM446 956l187 373q29 61 63 61t80 -32q55 -43 55 -74t-45 -76l-288 -284 q-46 -7 -52 32z" />
<glyph unicode="&#xfe;" horiz-adv-x="1091" d="M20 -492q0 28 13 35l41 4q52 3 64 31t12 137v1383q0 68 -6 90t-35 39l-35 20q-10 11 -10 31t10 31q100 25 313 114q23 0 35 -14q-6 -127 -6 -299v-326q0 -14 16 -18q154 82 260 82q160 0 254 -111t94 -280q0 -215 -139 -351t-362 -135q-63 0 -93 6q-31 -6 -30 -59v-203 q0 -106 12 -134t64 -32l69 -6q12 -8 12 -36t-14 -35q-153 6 -283 6t-241 -6q-15 8 -15 36zM416 231q0 -72 47 -118q43 -47 98 -47q92 0 145 89q52 89 52 236t-65 231t-169 85q-64 0 -86 -28t-22 -120v-328z" />
<glyph unicode="&#xff;" horiz-adv-x="960" d="M-23 792q2 28 17 33q111 -6 249 -6t251 6q14 -5 16 -33t-10 -38l-41 -9q-41 -8 -51 -16t-10 -23t61 -182q90 -229 92 -233q16 29 63 135l37 84q76 174 76 207q0 20 -45 28l-41 9q-14 10 -12 39t18 32q67 -6 173 -6t186 6q14 -7 16 -35t-12 -36l-39 -4q-66 -6 -94 -45 q-49 -66 -121 -216l-420 -868q-61 -131 -176 -135q-131 -2 -131 123q0 47 31 77q32 30 85 29h50q68 0 100 43q16 22 52 96t36 113t-39 139l-197 496q-33 80 -54 109t-68 37l-37 6q-12 10 -11 38zM201 1128q0 56 37 94t91 38t90 -36t36 -90t-35 -90t-90 -36t-91 32t-38 88z M582 1128q0 57 36 95q38 37 92 37t90 -36t36 -90t-35 -90t-90 -36t-91 32t-38 88z" />
<glyph unicode="&#x152;" horiz-adv-x="2084" d="M82 658q0 304 223 505t629 201l397 -12h350q236 0 275 6l26 -318q-6 -16 -34 -19t-41 11q-37 119 -78 162q-63 63 -201 63h-164q-49 0 -58 -11t-9 -68v-359q0 -43 8 -52t49 -9h141q82 0 110 19t42 93l10 52q10 12 39 12t37 -14q-6 -98 -6 -218t6 -217q-8 -14 -37 -15 t-39 13l-10 52q-14 74 -43 94t-109 20h-141q-41 0 -49 -9t-8 -54v-244q1 -148 27 -186t70 -50t138 -12t130 5q38 5 85 28t81 71t77 134q12 16 41 12t35 -22q-6 -76 -35 -180t-51 -148q-162 6 -473 6h-205l-434 -12q-383 0 -592 183t-209 487zM412 683q0 -247 133 -424 t381 -177q96 0 137 34t41 132v827q0 84 -14 122q-26 71 -183 73q-235 0 -365 -170t-130 -417z" />
<glyph unicode="&#x153;" horiz-adv-x="1515" d="M64 398q-2 206 138 328t330 122q102 0 188 -41t132 -109q53 66 138 108t173 42q162 0 249 -85t87 -210q1 -33 -15 -51t-59 -17h-405q-39 0 -47 -6t-8 -35q1 -125 79 -212t212 -87t200 107q49 0 49 -47q-55 -121 -150 -177t-204 -57q-197 0 -311 133q-48 -59 -138 -96 t-188 -37q-188 0 -318 111q-130 110 -132 316zM369 434q0 -164 50 -266t138 -102q160 0 156 317q-2 160 -48 265q-46 106 -125 106t-125 -78t-46 -242zM981 606q1 -20 21 -26t75 -5h90q55 -1 77 13t22 59t-32 76t-90 31t-110 -49q-53 -49 -53 -99z" />
<glyph unicode="&#x178;" horiz-adv-x="1177" d="M-53 1326q2 28 20 32q139 -6 311 -6t277 6q14 -6 16 -33t-12 -39l-70 -16q-49 -10 -49 -19q0 -25 54 -143l96 -219q44 -96 69 -147q26 -50 33 -66q30 47 152 290t123 279q0 18 -82 33l-39 8q-12 8 -12 36t14 36q124 -6 232 -6t198 6q18 -6 19 -34t-11 -38l-53 -10 q-78 -12 -107 -49q-59 -74 -178 -291l-129 -234q-41 -74 -54 -126t-13 -138v-143q0 -141 17 -175t87 -44l82 -10q10 -10 10 -36t-10 -36q-201 6 -336 6t-317 -6q-12 10 -13 36q0 26 13 36l69 10q70 10 87 45t18 174v102q0 82 -9 124t-47 120l-243 504q-35 69 -58 95t-73 34 l-70 12q-14 12 -12 40zM322 1577q0 57 35 94q36 37 89 37q52 0 88 -36t36 -89t-36 -89q-35 -36 -88 -36t-88 31t-36 88zM750 1577q0 57 35 94q36 37 89 37q52 0 88 -36t36 -89t-36 -89q-35 -36 -88 -36t-88 31t-36 88z" />
<glyph unicode="&#x2c6;" horiz-adv-x="778" d="M125 969l217 391q14 26 47 26t47 -26l217 -391q-14 -33 -59 -37l-164 178q-37 39 -43 39t-41 -37l-164 -180q-43 4 -57 37z" />
<glyph unicode="&#x2dc;" horiz-adv-x="778" d="M117 967q39 121 84 178q47 57 125 57h114q68 0 103 18t57 78q12 4 34 1t28 -11q-18 -102 -68 -176q-39 -57 -123 -57h-115q-119 0 -176 -101q-8 -6 -33 -3t-30 16z" />
<glyph unicode="&#x2000;" horiz-adv-x="907" />
<glyph unicode="&#x2001;" horiz-adv-x="1814" />
<glyph unicode="&#x2002;" horiz-adv-x="907" />
<glyph unicode="&#x2003;" horiz-adv-x="1814" />
<glyph unicode="&#x2004;" horiz-adv-x="604" />
<glyph unicode="&#x2005;" horiz-adv-x="453" />
<glyph unicode="&#x2006;" horiz-adv-x="302" />
<glyph unicode="&#x2007;" horiz-adv-x="302" />
<glyph unicode="&#x2008;" horiz-adv-x="226" />
<glyph unicode="&#x2009;" horiz-adv-x="362" />
<glyph unicode="&#x200a;" horiz-adv-x="100" />
<glyph unicode="&#x2010;" horiz-adv-x="671" d="M61 398q0 48 31 87l490 45q28 -33 28 -83t-26 -82l-492 -46q-31 31 -31 79z" />
<glyph unicode="&#x2011;" horiz-adv-x="671" d="M61 398q0 48 31 87l490 45q28 -33 28 -83t-26 -82l-492 -46q-31 31 -31 79z" />
<glyph unicode="&#x2012;" horiz-adv-x="671" d="M61 398q0 48 31 87l490 45q28 -33 28 -83t-26 -82l-492 -46q-31 31 -31 79z" />
<glyph unicode="&#x2013;" horiz-adv-x="1024" d="M0 354v142h1024v-142h-1024z" />
<glyph unicode="&#x2014;" horiz-adv-x="2048" d="M0 354v142h2048v-142h-2048z" />
<glyph unicode="&#x2018;" horiz-adv-x="518" d="M82 1104q0 130 93 220q93 91 231 122q26 -2 32 -28t-12 -36q-68 -24 -121 -74t-53 -116q0 -98 113 -127q61 -19 61 -81t-42 -99t-108 -37t-131 63q-63 63 -63 193z" />
<glyph unicode="&#x2019;" horiz-adv-x="518" d="M81 864q-7 26 11 35q68 25 121 75t53 116q0 98 -112 127q-62 19 -62 81t42 99t108 37t130 -64t64 -192t-93 -220t-230 -122q-25 2 -32 28z" />
<glyph unicode="&#x201a;" horiz-adv-x="518" d="M81 -222q-7 26 11 36q68 24 121 74t53 116q0 98 -112 127q-62 19 -62 81t42 99t108 37t131 -64q63 -65 63 -196t-92 -218t-231 -120q-25 2 -32 28z" />
<glyph unicode="&#x201c;" horiz-adv-x="966" d="M82 1104q0 130 93 220q93 91 231 122q26 -2 32 -28t-12 -36q-68 -24 -121 -74t-53 -116q0 -98 113 -127q61 -19 61 -81t-42 -99t-108 -37t-131 63q-63 63 -63 193zM530 1104q0 130 94 220q94 91 230 122q25 -2 32 -28t-12 -36q-68 -24 -120 -74t-54 -116q0 -98 113 -127 q61 -19 61 -81t-42 -99t-108 -37t-130 63t-64 193z" />
<glyph unicode="&#x201d;" horiz-adv-x="966" d="M81 864q-7 26 11 35q68 25 121 75t53 116q0 98 -112 127q-62 19 -62 81t42 99t108 37t130 -64t64 -192t-93 -220t-230 -122q-25 2 -32 28zM529 864q-7 26 12 35q68 25 121 75t53 116q0 98 -113 127q-61 19 -61 81t42 99q43 37 109 37t129 -64t63 -192t-92 -220 q-93 -92 -231 -122q-25 2 -32 28z" />
<glyph unicode="&#x201e;" horiz-adv-x="966" d="M81 -222q-7 26 11 36q68 24 121 74t53 116q0 98 -112 127q-62 19 -62 81t42 99t108 37t131 -64q63 -65 63 -196t-92 -218t-231 -120q-25 2 -32 28zM529 -222q-7 26 12 36q68 24 121 74t53 116q0 98 -113 127q-61 19 -61 81t42 99q43 37 109 37t129 -64t63 -196 q0 -131 -91 -218q-92 -87 -232 -120q-25 2 -32 28z" />
<glyph unicode="&#x2022;" horiz-adv-x="808" d="M86 687q0 133 92 227t225 94t227 -94t93 -227q0 -134 -93 -227q-94 -93 -226 -93t-225 93t-93 227z" />
<glyph unicode="&#x2026;" horiz-adv-x="2048" d="M176 137q0 72 48 121t119 49t118 -51t47 -121t-46 -117t-116 -47t-120 47t-50 119zM858 137q0 72 48 121t119 49t118 -51t47 -121t-46 -117t-116 -47t-120 47t-50 119zM1540 137q0 72 48 121t119 49t118 -51t47 -121t-46 -117t-116 -47t-120 47t-50 119z" />
<glyph unicode="&#x202f;" horiz-adv-x="362" />
<glyph unicode="&#x2039;" horiz-adv-x="522" d="M92 391q-31 37 0 74q150 162 311 352q36 -8 46 -31l-156 -327q-14 -29 0 -60l156 -333q-16 -33 -46 -31q-176 209 -311 356z" />
<glyph unicode="&#x203a;" horiz-adv-x="522" d="M74 66l155 333q14 31 0 60l-155 327q10 23 45 31q162 -190 311 -352q31 -37 0 -74q-135 -147 -311 -356q-29 -2 -45 31z" />
<glyph unicode="&#x205f;" horiz-adv-x="453" />
<glyph unicode="&#x20ac;" d="M25 540q8 36 20 46h88q0 90 4 123h-84q-10 10 -2 46q9 36 21 46h80q37 223 182 365t364 143q85 0 187 -29l100 -27q0 -154 21 -260q-8 -18 -33 -22t-33 8q-27 76 -49 120q-23 44 -75 80t-128 35q-223 0 -258 -413h514q6 -16 1 -50t-21 -42h-500q-6 -53 0 -123h461 q12 -8 5 -46t-24 -46h-434q18 -428 283 -428q96 0 159 68t97 159q9 12 31 9t30 -17q-31 -164 -71 -254q-27 -6 -60 -17q-117 -43 -233 -43q-224 1 -364 141t-165 382h-112q-10 10 -2 46z" />
<glyph unicode="&#x2122;" horiz-adv-x="1257" d="M61 1231q16 104 29 145q4 8 16 8t15 -8q14 -16 23 -20t40 -4h260q37 0 62 24q4 8 15 8t16 -8q-14 -63 -11 -151q-2 -15 -19 -15t-20 11q-8 39 -25 57t-54 18h-27q-12 0 -14 -3t-2 -21v-205q0 -51 6 -69t30 -21l33 -6q6 -3 5 -21t-7 -20q-45 2 -137 2t-129 -2q-6 2 -6 17 t4 24l33 6q23 3 29 25t7 71v199q0 18 -3 21t-19 3h-16q-66 0 -93 -71q-4 -10 -21 -8t-20 14zM581 948q-1 16 3 23l12 2q49 8 51 49q19 170 19 225t-50 62l-16 4q-12 4 -11 21t13 20l82 -2q61 0 135 2q0 -25 47 -115l39 -76q16 -31 25 -30q10 0 24 24l35 76q31 66 47 121 q63 -2 120 -2t81 2q8 -2 9 -20t-7 -21q-46 -9 -52 -19q-7 -10 -7 -90t4 -140q4 -61 9 -71t21 -14l31 -8q8 -5 8 -21t-8 -20q-29 2 -118 2t-119 -2q-4 4 -6 20q-1 16 6 21l30 8q16 4 21 13q4 9 4 36l-4 201q0 20 -4 22q-2 0 -39 -88l-39 -90q-47 -111 -57 -143q-33 -10 -52 2 q-4 14 -47 123l-47 112q-41 92 -47 97q-8 -24 -8 -98v-134q2 -35 9 -46t50 -15q4 -5 4 -19t-4 -22q-20 2 -95 2t-97 -2q-4 2 -5 18z" />
<glyph unicode="&#x25fc;" horiz-adv-x="825" d="M0 0v825h825v-825h-825z" />
<glyph unicode="&#xfb01;" horiz-adv-x="1159" d="M33 735q-2 20 6 29l88 45q45 25 45 53q0 199 64 334q125 268 430 268q152 0 246 -60t94 -151q0 -61 -43 -97t-106 -36t-89 43q-8 12 -27 51q-18 39 -28 56q-53 92 -127 92q-39 0 -70 -29q-30 -29 -54 -117t-24 -231v-115q0 -39 7 -45t47 -6h157q266 0 338 17q33 0 35 -31 q-10 -109 -10 -236v-331q0 -111 12 -139t63 -33l33 -5q12 -7 12 -33t-14 -34q-98 6 -232 6t-233 -6q-14 8 -14 34t12 33l33 5q41 4 51 32t10 140v292q0 121 -16 150t-90 29h-147q-38 1 -46 -7t-8 -47v-417q0 -111 12 -138t64 -34l27 -5q12 -7 12 -33t-14 -34q-87 6 -231 6 t-242 -6q-14 8 -15 34q0 26 12 33l33 5q51 6 64 33q12 28 12 139v413q0 41 -7 49t-44 9h-76q-10 6 -12 26z" />
<glyph unicode="&#xfb02;" horiz-adv-x="1159" d="M33 735q-2 20 6 29l88 45q45 25 45 53q0 219 57 341t159 192q102 69 236 69q136 0 224 -61q66 23 135 61q23 0 35 -14q-6 -125 -6 -299v-913q0 -106 12 -134t63 -34l33 -4q12 -8 12 -36t-14 -36q-98 6 -232 6t-233 -6q-14 8 -14 34t12 33l33 5q41 4 51 32t10 140v419 q0 37 -8 44t-47 8h-198q-38 -1 -46 -9t-8 -49v-413q0 -111 12 -138t64 -34l27 -5q12 -7 12 -33t-14 -34q-87 6 -231 6t-242 -6q-14 8 -15 36q0 28 12 36l33 4q51 6 64 33q12 28 12 135v413q0 41 -7 49t-44 9h-76q-10 6 -12 26zM438 877q0 -41 7 -50q8 -8 47 -8h198 q39 0 47 7t8 44v330q0 57 -36 112q-37 54 -102 54t-112 -87q-55 -97 -57 -355v-47z" />
</font>
</defs>
</svg>
